<svg version="1.2" xmlns="http://www.w3.org/2000/svg" viewBox="0 0 108 111" width="500" height="514">
	<title>Frame 427320593</title>
	<style>
		.s0 { fill: #ffffff } 
	</style>
	<path fill-rule="evenodd" class="s0" d="m4 54.9c0-27.6 22.4-49.9 50-49.9 27.6 0 50 22.3 50 49.9 0 27.6-22.4 49.9-50 49.9-27.6 0-50-22.3-50-49.9zm95 0c0-24.8-20.1-44.9-45-44.9-24.9 0-45 20.1-45 44.9 0 24.8 20.1 44.9 45 44.9 24.9 0 45-20.1 45-44.9zm-87 0c0-23.1 18.8-41.9 42-41.9 23.2 0 42 18.8 42 41.9 0 23.2-18.8 41.9-42 41.9-23.2 0-42-18.7-42-41.9zm83.2 0c0-22.7-18.5-41.1-41.2-41.1-22.7 0-41.2 18.4-41.2 41.1 0 22.7 18.5 41.1 41.2 41.1 22.7 0 41.2-18.4 41.2-41.1zm-49.2 14.6h5v-6.9h-7c-1.6-4.5-2-7.1-2.5-12.1-0.3-2.6 0-5.3 0.4-7.2 0.3-1.9 1-3.7 1.8-5.4l0.2-0.5c1.1-2.2 2.6-4.2 4.6-5.7 1-0.7 2.1-1.2 3.3-1.5l1.6-0.4c0.3-0.1 0.6 0.1 0.6 0.4 0 0.4 0.4 0.6 0.7 0.4l3.5-2.4c0.5-0.4 1.1-0.3 1.5 0.1 0.2 0.2 0.3 0.5 0.3 0.8v2.2q0 0.3-0.1 0.6c-0.2 0.4-0.2 1 0.2 1.3l1 1c0.3 0.3 0.4 0.6 0.4 1q0 0.4 0.3 0.8l4.8 6c0.2 0.4 0.4 0.8 0.4 1.3v0.7q0 0.6-0.3 1.1l-0.1 0.1c-0.4 0.6-1 0.9-1.7 0.9h-0.9c-0.6 0-1.2-0.3-1.6-0.8l-0.8-1c-0.4-0.4-1-0.7-1.6-0.7h-1.3c-0.5 0-0.9-0.2-1.2-0.4l-1.9-1.6q-0.1 0-0.1-0.1c-0.2-0.4-0.8-0.2-0.8 0.2l0.2 1.7q0.1 1.2 0.5 2.3l0.3 1q0.3 0.9 0.9 1.7l0.5 0.6q0.4 0.6 0.9 1.1l0.5 0.5q0.5 0.5 1 0.9l1.5 1.1 2.1 1.4c0.6 0.4 1.1 0.9 1.4 1.5q0.5 1.1 0.5 2.2v4.9h-8v6.9h5l-0.2 0.6c-0.5 1.8-0.5 3.7 0 5.5l0.2 0.9h-16l0.2-0.9c0.5-1.8 0.5-3.7 0-5.5zm-1 4c0 5-4.1 9-9 9-5 0-9-4-9-9 0-4.9 4-9 9-9 4.9 0 9 4.1 9 9zm36 0c0 5-4.1 9-9 9-5 0-9-4-9-9 0-4.9 4-9 9-9 4.9 0 9 4.1 9 9zm-58.6 39.9c2.1 0 3.3 1.1 3.3 2.9 0 1.1-0.5 1.9-1.4 2.3 1 0.4 1.5 1.2 1.5 2.4 0 1.8-1.2 2.8-3.4 2.8h-4.3v-10.4zm-2.1 4.3h1.8c0.8 0 1.3-0.4 1.3-1.2q0-1.1-1.3-1.1h-1.8zm0 4.2h1.9q1.3 0 1.3-1.2c0-0.7-0.4-1.1-1.3-1.1h-1.9zm7.1 2v-10.3h2.2v10.3zm11.8-10.3v2.1h-2.9v8.2h-2.3v-8.2h-2.9v-2.1zm8.2 3h-2.3c0-0.8-0.5-1.2-1.4-1.2-0.9 0-1.5 0.4-1.5 1.1 0 0.6 0.3 0.9 1.1 1.1l1.5 0.3c1.9 0.4 2.7 1.3 2.7 2.9 0 2-1.5 3.3-3.9 3.3-2.3 0-3.8-1.2-3.8-3.2h2.2c0 0.8 0.6 1.2 1.6 1.2 1 0 1.7-0.4 1.7-1.1 0-0.5-0.3-0.8-1-1l-1.6-0.3q-2.7-0.6-2.8-3.1c0-1.9 1.6-3.2 3.8-3.2 2.3 0 3.7 1.2 3.7 3.2zm4.4-3h2.2l3.7 10.3h-2.4l-0.8-2.2h-3.3l-0.7 2.2h-2.4zm2.1 6.3l-0.7-2.2c-0.1-0.4-0.3-0.8-0.3-1-0.1 0.2-0.2 0.6-0.3 1l-0.7 2.2zm9-6.4c2.6 0 4.4 1.4 4.7 3.8h-2.4c-0.3-1.1-1.1-1.7-2.4-1.7-1.7 0-2.7 1.2-2.7 3.2 0 2 1 3.2 2.7 3.2 1.3 0 2.2-0.7 2.5-1.7h2.4c-0.4 2.3-2.3 3.9-4.9 3.9-3.1 0-5.1-2.1-5.1-5.4 0-3.2 2.1-5.3 5.2-5.3zm10.8 0c2.6 0 4.5 1.4 4.8 3.8h-2.4c-0.3-1.1-1.2-1.7-2.4-1.7-1.7 0-2.7 1.2-2.7 3.2 0 2 1 3.2 2.7 3.2 1.3 0 2.2-0.7 2.5-1.7h2.3c-0.3 2.3-2.3 3.9-4.9 3.9-3.1 0-5-2.1-5-5.4 0-3.2 2.1-5.3 5.1-5.3zm5.8 5.3c0-3.2 2-5.4 5-5.4 3.1 0 5.1 2.2 5.1 5.4 0 3.2-2.1 5.4-5.1 5.4-3 0-5-2.2-5-5.4zm2.4 0c0 2 1 3.2 2.7 3.2 1.6 0 2.6-1.2 2.6-3.2 0-2-1-3.2-2.6-3.2-1.7 0-2.7 1.2-2.7 3.2z"/>
</svg>