<svg width="100" height="100" viewBox="0 0 100 100" fill="none" xmlns="http://www.w3.org/2000/svg">
<path d="M50 0C77.6142 0 100 22.3474 100 49.9141C99.9999 77.4807 77.6142 99.8281 50 99.8281C22.3858 99.8281 7.64217e-05 77.4807 0 49.9141C0 22.3474 22.3858 0 50 0ZM50 4.99121C25.1472 4.99121 5 25.104 5 49.9141C5.00008 74.724 25.1472 94.8369 50 94.8369C74.8528 94.8369 94.9999 74.724 95 49.9141C95 25.104 74.8528 4.99121 50 4.99121ZM50 7.98633C73.196 7.98633 92 26.758 92 49.9141C92 73.0701 73.1959 91.8418 50 91.8418C26.8041 91.8418 8.00002 73.0701 8 49.9141C8 26.758 26.804 7.98633 50 7.98633ZM50 8.8252C27.268 8.8252 8.83984 27.2212 8.83984 49.9141C8.83987 72.6069 27.268 91.0029 50 91.0029C72.732 91.0029 91.1601 72.6069 91.1602 49.9141C91.1602 27.2212 72.732 8.8252 50 8.8252ZM32 59.5547C36.9705 59.5547 40.9999 63.5771 41 68.5391C41 73.501 36.9706 77.5234 32 77.5234C27.0295 77.5234 23 73.501 23 68.5391C23.0001 63.5771 27.0295 59.5547 32 59.5547ZM68 59.5547C72.9705 59.5547 76.9999 63.5771 77 68.5391C77 73.501 72.9706 77.5234 68 77.5234C63.0294 77.5234 59 73.501 59 68.5391C59.0001 63.5771 63.0295 59.5547 68 59.5547ZM54.2256 23.1602C54.6738 22.8472 55.2821 22.9009 55.6689 23.2871C55.8807 23.4986 55.9999 23.7856 56 24.085V26.3369C56 26.5179 55.958 26.6965 55.877 26.8584C55.6521 27.3073 55.7404 27.8503 56.0957 28.2051L57.1152 29.2227C57.3617 29.4687 57.5 29.8031 57.5 30.1514C57.5001 30.4455 57.5994 30.7308 57.7812 30.9619L62.5713 37.0488C62.8488 37.4014 63 37.8374 63 38.2861V38.9834C63 39.3787 62.8826 39.765 62.6631 40.0938L62.5938 40.1982C62.2227 40.7537 61.5987 41.0869 60.9307 41.0869H59.96C59.3531 41.0868 58.7789 40.8115 58.3994 40.3379L57.6006 39.3408C57.2211 38.8672 56.6469 38.5919 56.04 38.5918H54.7002C54.2468 38.5917 53.8064 38.4372 53.4521 38.1543L51.5684 36.6494C51.5237 36.6137 51.4866 36.5687 51.4609 36.5176C51.2643 36.125 50.6701 36.2975 50.7139 36.7344L50.8818 38.4121C50.9602 39.1945 51.126 39.9661 51.375 40.7119L51.6963 41.6748C51.8975 42.2774 52.1946 42.8437 52.5762 43.3516L53.0732 44.0127C53.3575 44.3911 53.668 44.7496 54.0029 45.084L54.5479 45.627C54.8491 45.9276 55.171 46.2068 55.5117 46.4619L57 47.5762L59.1201 48.9873C59.6967 49.371 60.1635 49.8983 60.4736 50.5176C60.8199 51.209 61 51.9718 61 52.7451V57.5586H53V64.5469H58L57.8242 65.1338C57.2859 66.9286 57.2623 68.8391 57.7568 70.6465L58 71.5352H42L42.2432 70.6465C42.7377 68.8391 42.7141 66.9286 42.1758 65.1338L42 64.5469H47V57.5586H40C38.434 53.0712 38 50.4913 37.5 45.5C37.0008 40.5166 38.4952 35.516 38.5 35.5L39.9307 32.4004C40.9608 30.1684 42.5279 28.2261 44.4922 26.748L44.543 26.71C45.5042 25.9867 46.6014 25.4642 47.7686 25.1729L49.4189 24.7607C49.7141 24.6873 49.9999 24.9106 50 25.2148C50 25.5933 50.4261 25.8154 50.7363 25.5986L54.2256 23.1602Z" fill="#008080"/>
</svg>
