<svg width="106" height="29" viewBox="0 0 106 29" fill="none" xmlns="http://www.w3.org/2000/svg">
<path fill-rule="evenodd" clip-rule="evenodd" d="M14.2772 28.5052C22.1622 28.5052 28.5543 22.1241 28.5543 14.2526C28.5543 6.3811 22.1622 0 14.2772 0C6.3921 0 0 6.3811 0 14.2526C0 22.1241 6.3921 28.5052 14.2772 28.5052ZM14.2772 27.0799C7.18061 27.0799 1.42772 21.3369 1.42772 14.2526C1.42772 7.16825 7.18061 1.42526 14.2772 1.42526C21.3737 1.42526 27.1266 7.16825 27.1266 14.2526C27.1266 21.3369 21.3737 27.0799 14.2772 27.0799ZM14.2772 26.2256C20.9006 26.2256 26.27 20.8655 26.27 14.2534C26.27 7.64137 20.9006 2.28125 14.2772 2.28125C7.65373 2.28125 2.28436 7.64137 2.28436 14.2534C2.28436 20.8655 7.65373 26.2256 14.2772 26.2256ZM14.2772 25.9861C7.7862 25.9861 2.52422 20.7332 2.52422 14.2534C2.52422 7.77361 7.7862 2.52069 14.2772 2.52069C20.7682 2.52069 26.0301 7.77361 26.0301 14.2534C26.0301 20.7332 20.7682 25.9861 14.2772 25.9861ZM11.9928 18.4312H13.4205V16.4358H11.4217C10.9745 15.1544 10.8506 14.4177 10.7078 12.9925C10.6326 12.2415 10.7159 11.4892 10.8116 10.9455C10.9073 10.4017 11.1095 9.88542 11.3409 9.38411L11.4019 9.2519C11.6961 8.61458 12.1436 8.0601 12.7045 7.63806L12.719 7.62711C12.9935 7.42057 13.3067 7.27128 13.64 7.1881L14.1111 7.07052C14.1955 7.04947 14.2771 7.11327 14.2771 7.2002C14.2771 7.30829 14.3988 7.37168 14.4874 7.30976L15.4837 6.61356C15.6116 6.52412 15.7853 6.53932 15.8958 6.64963C15.9564 6.71007 15.9904 6.79211 15.9904 6.87765V7.52054C15.9904 7.57226 15.9783 7.62327 15.9552 7.66951C15.891 7.79771 15.9161 7.95262 16.0176 8.05391L16.3088 8.3446C16.3792 8.41486 16.4187 8.51023 16.4187 8.60968C16.4187 8.69371 16.447 8.7753 16.4989 8.84133L17.8669 10.5793C17.9461 10.68 17.9892 10.8044 17.9892 10.9325V11.1317C17.9892 11.2446 17.9557 11.355 17.893 11.4489L17.8732 11.4785C17.7673 11.6372 17.5891 11.7324 17.3983 11.7324H17.1212C16.9479 11.7324 16.7839 11.6537 16.6756 11.5185L16.4474 11.2338C16.339 11.0985 16.1751 11.0198 16.0018 11.0198H15.6194C15.4899 11.0198 15.3642 10.9758 15.263 10.895L14.7248 10.4652C14.7121 10.455 14.7017 10.4421 14.6943 10.4275C14.6382 10.3154 14.4685 10.3646 14.481 10.4894L14.529 10.9687C14.5514 11.1921 14.5986 11.4124 14.6697 11.6254L14.7615 11.9002C14.8189 12.0723 14.9038 12.234 15.0127 12.379L15.1546 12.5678C15.2358 12.6759 15.3245 12.778 15.4202 12.8735L15.5756 13.0287C15.6617 13.1146 15.7537 13.1943 15.851 13.2671L16.2759 13.5853L16.8813 13.9882C17.046 14.0977 17.1792 14.2484 17.2677 14.4252C17.3666 14.6227 17.4181 14.8405 17.4181 15.0613V16.4358H15.1338V18.4312H16.5615L16.5112 18.5989C16.3574 19.1114 16.3508 19.6568 16.4921 20.173L16.5615 20.4265H11.9928L12.0622 20.173C12.2034 19.6568 12.1968 19.1114 12.0431 18.5989L11.9928 18.4312ZM11.7073 19.5694C11.7073 20.9862 10.5567 22.1348 9.13739 22.1348C7.71808 22.1348 6.5675 20.9862 6.5675 19.5694C6.5675 18.1525 7.71808 17.0039 9.13739 17.0039C10.5567 17.0039 11.7073 18.1525 11.7073 19.5694ZM21.9868 19.5694C21.9868 20.9862 20.8362 22.1348 19.4169 22.1348C17.9976 22.1348 16.847 20.9862 16.847 19.5694C16.847 18.1525 17.9976 17.0039 19.4169 17.0039C20.8362 17.0039 21.9868 18.1525 21.9868 19.5694ZM33.6323 9.64V20H37.9443C40.1843 20 41.4163 18.978 41.4163 17.144C41.4163 15.968 40.8703 15.17 39.8483 14.834C40.7863 14.428 41.2903 13.616 41.2903 12.51C41.2903 10.732 40.0303 9.64 37.9443 9.64H33.6323ZM35.9003 11.628H37.7063C38.5323 11.628 38.9663 12.006 38.9663 12.734C38.9663 13.476 38.5183 13.882 37.7063 13.882H35.9003V11.628ZM35.9003 15.786H37.8183C38.6443 15.786 39.0923 16.164 39.0923 16.864C39.0923 17.634 38.6583 18.012 37.8183 18.012H35.9003V15.786ZM45.2109 20V9.64H42.9429V20H45.2109ZM46.5746 9.64V11.74H49.5146V20H51.7826V11.74H54.7226V9.64H46.5746ZM59.3155 9.444C57.0895 9.444 55.5075 10.774 55.5075 12.65C55.5075 14.344 56.4595 15.394 58.3075 15.772L59.8895 16.094C60.5755 16.234 60.8415 16.528 60.8415 17.102C60.8415 17.76 60.1975 18.166 59.1755 18.166C58.1675 18.166 57.6075 17.746 57.6075 16.99H55.3535C55.3535 18.936 56.8515 20.182 59.1615 20.182C61.5415 20.182 63.1095 18.88 63.1095 16.878C63.1095 15.24 62.2275 14.358 60.3795 13.98L58.8255 13.658C58.0975 13.504 57.7755 13.196 57.7755 12.566C57.7755 11.88 58.3635 11.46 59.2875 11.46C60.1415 11.46 60.6875 11.908 60.6875 12.636H62.9415C62.9415 10.676 61.5415 9.444 59.3155 9.444ZM63.6608 20H66.0268L66.7688 17.816H70.1148L70.8428 20H73.2508L69.5688 9.64H67.3568L63.6608 20ZM67.4268 15.912L68.1688 13.7C68.2948 13.322 68.4068 12.93 68.4488 12.692C68.4908 12.944 68.6168 13.35 68.7288 13.7L69.4708 15.912H67.4268ZM73.322 14.834C73.322 18.11 75.268 20.168 78.376 20.168C80.966 20.168 82.898 18.642 83.262 16.332H80.91C80.63 17.354 79.692 17.984 78.418 17.984C76.752 17.984 75.716 16.766 75.716 14.82C75.716 12.846 76.738 11.656 78.418 11.656C79.664 11.656 80.546 12.244 80.854 13.28H83.248C82.926 10.956 81.064 9.472 78.474 9.472C75.38 9.472 73.322 11.6 73.322 14.834ZM84.2048 14.834C84.2048 18.11 86.1508 20.168 89.2588 20.168C91.8488 20.168 93.7808 18.642 94.1448 16.332H91.7928C91.5128 17.354 90.5748 17.984 89.3008 17.984C87.6348 17.984 86.5988 16.766 86.5988 14.82C86.5988 12.846 87.6208 11.656 89.3008 11.656C90.5468 11.656 91.4288 12.244 91.7368 13.28H94.1308C93.8088 10.956 91.9468 9.472 89.3568 9.472C86.2628 9.472 84.2048 11.6 84.2048 14.834ZM100.142 20.168C103.152 20.168 105.238 17.97 105.238 14.806C105.238 11.642 103.166 9.458 100.156 9.458C97.1596 9.458 95.0876 11.656 95.0876 14.82C95.0876 17.984 97.1456 20.168 100.142 20.168ZM100.17 11.642C101.836 11.642 102.844 12.832 102.844 14.806C102.844 16.766 101.836 17.984 100.17 17.984C98.4896 17.984 97.4816 16.794 97.4816 14.806C97.4816 12.832 98.4896 11.642 100.17 11.642Z" fill="#008080"/>
</svg>
