<svg width="147" height="147" viewBox="0 0 147 147" fill="none" xmlns="http://www.w3.org/2000/svg">
<path fill-rule="evenodd" clip-rule="evenodd" d="M73 113.828C100.614 113.828 123 91.4806 123 63.9139C123 36.3472 100.614 14 73 14C45.3858 14 23 36.3472 23 63.9139C23 91.4806 45.3858 113.828 73 113.828ZM73 108.836C48.1472 108.836 28 88.7239 28 63.9139C28 39.1039 48.1472 18.9914 73 18.9914C97.8528 18.9914 118 39.1039 118 63.9139C118 88.7239 97.8528 108.836 73 108.836ZM73 105.842C96.196 105.842 115 87.07 115 63.914C115 40.758 96.196 21.9863 73 21.9863C49.804 21.9863 31 40.758 31 63.914C31 87.07 49.804 105.842 73 105.842ZM73 105.003C50.268 105.003 31.84 86.6069 31.84 63.914C31.84 41.2211 50.268 22.8249 73 22.8249C95.732 22.8249 114.16 41.2211 114.16 63.914C114.16 86.6069 95.732 105.003 73 105.003ZM65 78.5469H70V71.5589H63C61.4339 67.0713 61 64.4914 60.5 59.5C60.2366 56.8702 60.5283 54.2356 60.8633 52.3313C61.1984 50.4269 61.9067 48.6189 62.717 46.8632L62.9307 46.4002C63.9608 44.1683 65.5281 42.2264 67.4924 40.7484L67.5433 40.7101C68.5046 39.9867 69.6015 39.4639 70.7687 39.1726L72.4186 38.7608C72.7139 38.6871 73 38.9105 73 39.215C73 39.5935 73.4259 39.8155 73.7362 39.5987L77.2253 37.1605C77.6736 36.8473 78.2818 36.9005 78.6688 37.2868C78.8808 37.4985 79 37.7858 79 38.0854V40.3368C79 40.518 78.9578 40.6966 78.8766 40.8586C78.6518 41.3075 78.7399 41.85 79.0952 42.2048L80.115 43.2228C80.3615 43.4688 80.5 43.8028 80.5 44.1511C80.5 44.4454 80.599 44.7311 80.781 44.9624L85.5716 51.049C85.8491 51.4016 86 51.8373 86 52.286V52.9835C86 53.3789 85.8828 53.7654 85.6632 54.0942L85.5939 54.198C85.2228 54.7537 84.5988 55.0873 83.9307 55.0873H82.9602C82.3532 55.0873 81.7791 54.8117 81.3995 54.338L80.6005 53.3409C80.2209 52.8673 79.6468 52.5916 79.0398 52.5916H77.7006C77.247 52.5916 76.8069 52.4375 76.4525 52.1544L74.5679 50.6493C74.5232 50.6136 74.4867 50.5686 74.4611 50.5174C74.2645 50.1248 73.6701 50.2971 73.7139 50.7339L73.882 52.4125C73.9604 53.195 74.1257 53.9664 74.3748 54.7123L74.6962 55.6749C74.8974 56.2775 75.1945 56.8437 75.5761 57.3516L76.073 58.013C76.3573 58.3914 76.6681 58.7491 77.0031 59.0835L77.5475 59.6269C77.8488 59.9277 78.1711 60.2068 78.5119 60.462L80 61.5761L82.1201 62.9871C82.6967 63.3708 83.1632 63.8984 83.4733 64.5177C83.8197 65.2092 84 65.9719 84 66.7453V71.5589H76V78.5469H81L80.8238 79.1342C80.2855 80.9292 80.2623 82.8393 80.757 84.6469L81 85.5348H65L65.243 84.6469C65.7377 82.8394 65.7145 80.9292 65.1762 79.1342L65 78.5469ZM64 82.5392C64 87.5012 59.9706 91.5237 55 91.5237C50.0294 91.5237 46 87.5012 46 82.5392C46 77.5772 50.0294 73.5547 55 73.5547C59.9706 73.5547 64 77.5772 64 82.5392ZM100 82.5392C100 87.5012 95.9706 91.5237 91 91.5237C86.0294 91.5237 82 87.5012 82 82.5392C82 77.5772 86.0294 73.5547 91 73.5547C95.9706 73.5547 100 77.5772 100 82.5392ZM37.078 122.462V132.822H41.39C43.63 132.822 44.862 131.8 44.862 129.966C44.862 128.79 44.316 127.992 43.294 127.656C44.232 127.25 44.736 126.438 44.736 125.332C44.736 123.554 43.476 122.462 41.39 122.462H37.078ZM39.346 124.45H41.152C41.978 124.45 42.412 124.828 42.412 125.556C42.412 126.298 41.964 126.704 41.152 126.704H39.346V124.45ZM39.346 128.608H41.264C42.09 128.608 42.538 128.986 42.538 129.686C42.538 130.456 42.104 130.834 41.264 130.834H39.346V128.608ZM48.6565 132.822V122.462H46.3885V132.822H48.6565ZM50.0202 122.462V124.562H52.9602V132.822H55.2282V124.562H58.1682V122.462H50.0202ZM62.7612 122.266C60.5352 122.266 58.9532 123.596 58.9532 125.472C58.9532 127.166 59.9052 128.216 61.7532 128.594L63.3352 128.916C64.0212 129.056 64.2872 129.35 64.2872 129.924C64.2872 130.582 63.6432 130.988 62.6212 130.988C61.6132 130.988 61.0532 130.568 61.0532 129.812H58.7992C58.7992 131.758 60.2972 133.004 62.6072 133.004C64.9872 133.004 66.5552 131.702 66.5552 129.7C66.5552 128.062 65.6732 127.18 63.8252 126.802L62.2712 126.48C61.5432 126.326 61.2212 126.018 61.2212 125.388C61.2212 124.702 61.8092 124.282 62.7332 124.282C63.5872 124.282 64.1332 124.73 64.1332 125.458H66.3872C66.3872 123.498 64.9872 122.266 62.7612 122.266ZM67.1065 132.822H69.4725L70.2145 130.638H73.5605L74.2885 132.822H76.6965L73.0145 122.462H70.8025L67.1065 132.822ZM70.8725 128.734L71.6145 126.522C71.7405 126.144 71.8525 125.752 71.8945 125.514C71.9365 125.766 72.0625 126.172 72.1745 126.522L72.9165 128.734H70.8725ZM76.7677 127.656C76.7677 130.932 78.7137 132.99 81.8217 132.99C84.4117 132.99 86.3437 131.464 86.7077 129.154H84.3557C84.0757 130.176 83.1377 130.806 81.8637 130.806C80.1977 130.806 79.1617 129.588 79.1617 127.642C79.1617 125.668 80.1837 124.478 81.8637 124.478C83.1097 124.478 83.9917 125.066 84.2997 126.102H86.6937C86.3717 123.778 84.5097 122.294 81.9197 122.294C78.8257 122.294 76.7677 124.422 76.7677 127.656ZM87.6505 127.656C87.6505 130.932 89.5965 132.99 92.7045 132.99C95.2945 132.99 97.2265 131.464 97.5905 129.154H95.2385C94.9585 130.176 94.0205 130.806 92.7465 130.806C91.0805 130.806 90.0445 129.588 90.0445 127.642C90.0445 125.668 91.0665 124.478 92.7465 124.478C93.9925 124.478 94.8745 125.066 95.1825 126.102H97.5765C97.2545 123.778 95.3925 122.294 92.8025 122.294C89.7085 122.294 87.6505 124.422 87.6505 127.656ZM103.587 132.99C106.597 132.99 108.683 130.792 108.683 127.628C108.683 124.464 106.611 122.28 103.601 122.28C100.605 122.28 98.5333 124.478 98.5333 127.642C98.5333 130.806 100.591 132.99 103.587 132.99ZM103.615 124.464C105.281 124.464 106.289 125.654 106.289 127.628C106.289 129.588 105.281 130.806 103.615 130.806C101.935 130.806 100.927 129.616 100.927 127.628C100.927 125.654 101.935 124.464 103.615 124.464Z" fill="#008080"/>
</svg>
