<svg width="198" height="194" viewBox="0 0 198 194" fill="none" xmlns="http://www.w3.org/2000/svg">
<path d="M197.494 130.434H121.729V86.5908H197.494V130.434ZM122.192 129.972H197.031V87.0531H122.192V129.972Z" fill="#E0E0E0"/>
<path d="M181.864 109.969H131.877V111.434H181.864V109.969Z" fill="#F0F0F0"/>
<path d="M185.308 115.433H131.877V117.033H185.308V115.433Z" fill="#F0F0F0"/>
<path d="M185.308 120.962H131.877V122.561H185.308V120.962Z" fill="#F0F0F0"/>
<path d="M149.347 102.031H131.877V105.836H149.347V102.031Z" fill="#F0F0F0"/>
<path d="M197.263 86.8223H121.975V93.8028H197.263V86.8223Z" fill="#E0E0E0"/>
<path d="M191.471 92.7578C191.373 92.6654 192.344 91.4958 193.634 90.1459C194.924 88.796 196.056 87.7744 196.149 87.8622C196.241 87.95 195.275 89.1242 193.985 90.4787C192.696 91.8332 191.563 92.8503 191.471 92.7578Z" fill="white"/>
<path d="M196.158 92.7579C196.065 92.8504 194.937 91.8333 193.643 90.4788C192.348 89.1243 191.382 87.9547 191.479 87.8623C191.576 87.7698 192.7 88.7869 193.994 90.146C195.289 91.5051 196.246 92.6654 196.158 92.7579Z" fill="white"/>
<path d="M104.265 0H28.9766V43.3857H104.265V0Z" fill="#E6E6E6"/>
<path d="M88.8699 23.1514H38.8828V24.6168H88.8699V23.1514Z" fill="#F0F0F0"/>
<path d="M92.314 28.6157H38.8828V30.2152H92.314V28.6157Z" fill="#F0F0F0"/>
<path d="M92.314 34.1445H38.8828V35.744H92.314V34.1445Z" fill="#F0F0F0"/>
<path d="M56.3526 15.2139H38.8828V19.0185H56.3526V15.2139Z" fill="#F0F0F0"/>
<path d="M104.265 0H28.9766V6.98054H104.265V0Z" fill="#E0E0E0"/>
<path d="M98.2176 5.90365C98.1205 5.81581 99.0914 4.6416 100.381 3.29172C101.671 1.94184 102.804 0.920191 102.896 1.01265C102.988 1.10511 102.022 2.27469 100.732 3.62457C99.4427 4.97445 98.3101 5.98686 98.2176 5.90365Z" fill="white"/>
<path d="M102.896 5.90318C102.804 5.99564 101.676 4.97861 100.381 3.62411C99.0868 2.2696 98.1206 1.10464 98.2177 1.01218C98.3147 0.919726 99.4381 1.93676 100.732 3.29126C102.027 4.64576 102.993 5.81535 102.896 5.90318Z" fill="white"/>
<path d="M75.7504 80.595H0V36.7471H75.7504V80.595ZM0.462287 80.1327H75.2881V37.2094H0.462287V80.1327Z" fill="#E0E0E0"/>
<path d="M60.1248 60.1299H10.1377V61.5953H60.1248V60.1299Z" fill="#F0F0F0"/>
<path d="M63.5689 65.5938H10.1377V67.1933H63.5689V65.5938Z" fill="#F0F0F0"/>
<path d="M63.5689 71.123H10.1377V72.7226H63.5689V71.123Z" fill="#F0F0F0"/>
<path d="M27.6075 52.1924H10.1377V55.997H27.6075V52.1924Z" fill="#F0F0F0"/>
<path d="M75.5196 36.9785H0.231445V43.9591H75.5196V36.9785Z" fill="#E0E0E0"/>
<path d="M163.173 90.6406H74.2754V170.228H163.173V90.6406Z" fill="#E6E6E6"/>
<path d="M78.7464 65.5708H9.10742V137.923H78.7464V65.5708Z" fill="#F0F0F0"/>
<path d="M78.7464 65.5708H9.10742V73.4528H78.7464V65.5708Z" fill="#E0E0E0"/>
<path d="M14.8577 69.4308C14.845 69.7166 14.7487 69.9925 14.5807 70.224C14.4127 70.4556 14.1803 70.6327 13.9125 70.7334C13.6447 70.8341 13.3533 70.854 13.0743 70.7905C12.7953 70.7271 12.5411 70.5831 12.3432 70.3764C12.1454 70.1698 12.0125 69.9096 11.9612 69.6281C11.9099 69.3467 11.9423 69.0563 12.0546 68.7931C12.1668 68.53 12.3538 68.3055 12.5924 68.1477C12.8311 67.9898 13.1108 67.9056 13.3969 67.9053C13.7925 67.915 14.1683 68.0809 14.442 68.3667C14.7157 68.6526 14.8652 69.0351 14.8577 69.4308Z" fill="white"/>
<path d="M20.789 69.4308C20.7773 69.718 20.6813 69.9954 20.5131 70.2284C20.3448 70.4615 20.1118 70.6399 19.8429 70.7415C19.5741 70.8432 19.2813 70.8635 19.0009 70.7999C18.7206 70.7364 18.4652 70.5919 18.2664 70.3843C18.0676 70.1767 17.9342 69.9152 17.8829 69.6324C17.8316 69.3496 17.8646 69.0579 17.9777 68.7937C18.0909 68.5295 18.2793 68.3044 18.5194 68.1465C18.7595 67.9885 19.0408 67.9046 19.3282 67.9053C19.7239 67.915 20.0996 68.0809 20.3733 68.3667C20.647 68.6526 20.7965 69.0351 20.789 69.4308Z" fill="white"/>
<path d="M26.7207 69.4308C26.7089 69.718 26.6129 69.9954 26.4447 70.2284C26.2765 70.4615 26.0434 70.6399 25.7746 70.7415C25.5057 70.8432 25.2129 70.8635 24.9326 70.7999C24.6523 70.7364 24.3968 70.5919 24.198 70.3843C23.9992 70.1767 23.8659 69.9152 23.8146 69.6324C23.7632 69.3496 23.7962 69.0579 23.9094 68.7937C24.0226 68.5295 24.2109 68.3044 24.451 68.1465C24.6912 67.9885 24.9724 67.9046 25.2599 67.9053C25.6555 67.915 26.0312 68.0809 26.305 68.3667C26.5787 68.6526 26.7281 69.0351 26.7207 69.4308Z" fill="white"/>
<path d="M187.55 15.8242H98.6523V104.426H187.55V15.8242Z" fill="#F0F0F0"/>
<path d="M187.55 15.8242H98.6523V26.2026H187.55V15.8242Z" fill="#E0E0E0"/>
<path d="M106.225 20.9094C106.208 21.2867 106.082 21.6509 105.86 21.9568C105.639 22.2626 105.332 22.4967 104.979 22.63C104.626 22.7632 104.241 22.7897 103.873 22.7062C103.504 22.6227 103.169 22.4328 102.907 22.1602C102.646 21.8876 102.47 21.5442 102.402 21.1727C102.335 20.8012 102.377 20.4179 102.525 20.0705C102.673 19.7231 102.92 19.4268 103.235 19.2184C103.55 19.0101 103.919 18.8988 104.297 18.8984C104.819 18.9106 105.315 19.129 105.676 19.5059C106.037 19.8827 106.235 20.3874 106.225 20.9094Z" fill="white"/>
<path d="M113.469 19.55C113.725 19.8283 113.894 20.1759 113.954 20.5494C114.014 20.923 113.963 21.3059 113.807 21.6506C113.651 21.9953 113.397 22.2865 113.077 22.4879C112.757 22.6892 112.384 22.7919 112.006 22.7831C111.628 22.7742 111.26 22.6543 110.95 22.4382C110.639 22.2221 110.399 21.9194 110.259 21.5678C110.12 21.2163 110.086 20.8313 110.164 20.461C110.241 20.0907 110.426 19.7514 110.695 19.4853C111.072 19.1268 111.575 18.9323 112.095 18.9444C112.615 18.9565 113.109 19.1743 113.469 19.55Z" fill="white"/>
<path d="M121.84 20.9094C121.824 21.2867 121.697 21.6509 121.475 21.9568C121.254 22.2626 120.948 22.4967 120.594 22.63C120.241 22.7632 119.856 22.7897 119.488 22.7062C119.119 22.6227 118.784 22.4328 118.522 22.1602C118.261 21.8876 118.086 21.5442 118.018 21.1727C117.95 20.8012 117.993 20.4179 118.141 20.0705C118.289 19.7231 118.535 19.4268 118.85 19.2184C119.165 19.0101 119.535 18.8988 119.912 18.8984C120.434 18.9106 120.93 19.129 121.291 19.5059C121.653 19.8827 121.85 20.3874 121.84 20.9094Z" fill="white"/>
<path d="M168.347 193.735C168.347 193.8 136.245 193.856 96.6597 193.856C57.0741 193.856 24.959 193.8 24.959 193.735C24.959 193.671 57.0556 193.615 96.6597 193.615C136.264 193.615 168.347 193.675 168.347 193.735Z" fill="#263238"/>
<path d="M137.068 137.142C129.926 132.154 128.308 122.894 128.59 114.568C128.636 113.182 128.483 111.712 129.144 110.496C129.805 109.28 131.349 108.443 132.593 109.026C133.624 109.511 134.072 110.713 134.65 111.707C135.421 113.031 136.551 114.109 137.909 114.818C138.792 115.28 139.888 115.558 140.762 115.077C141.964 114.416 142.102 112.766 142.093 111.379C142.093 108.799 142.078 106.223 142.047 103.649C141.964 102.267 142.104 100.881 142.463 99.5441C142.893 98.2312 143.85 97.0154 145.158 96.6456C146.466 96.2757 148.098 97.0385 148.394 98.3884C148.445 98.9601 148.459 99.5346 148.436 100.108C148.473 100.686 148.741 101.319 149.282 101.495C149.822 101.671 150.386 101.268 150.803 100.862C152.226 99.4748 153.197 97.6672 154.099 95.8828C155 94.0984 155.883 92.2631 157.177 90.7422C158.472 89.2212 160.261 88.0147 162.263 87.8991C164.264 87.7835 166.349 89.0132 166.849 90.9548C167.348 92.8964 166.215 94.8796 164.999 96.456C163.165 98.796 161.002 100.859 158.578 102.581C158.105 102.84 157.727 103.243 157.501 103.732C157.201 104.657 158.074 105.582 158.985 105.873C160.016 106.215 161.135 106.109 162.221 106.238C163.307 106.367 164.463 106.839 164.875 107.856C165.439 109.271 164.255 110.75 163.095 111.721C160.765 113.662 158.119 115.19 155.273 116.237C154.256 116.607 153.188 116.935 152.365 117.647C151.542 118.359 151.052 119.603 151.547 120.578C152.041 121.554 153.313 121.863 154.381 121.665C155.449 121.466 156.396 120.893 157.413 120.509C159.313 119.792 161.763 119.922 162.961 121.563C163.332 122.128 163.566 122.772 163.647 123.443C163.727 124.115 163.65 124.795 163.423 125.432C162.96 126.7 162.248 127.861 161.329 128.849C158.301 132.466 154.367 135.215 149.929 136.814C145.523 138.339 141.441 138.755 137.063 137.151" fill="#008080"/>
<path d="M164.814 89.041C164.814 89.041 164.773 89.0872 164.68 89.1705L164.269 89.5357C163.908 89.8593 163.377 90.3308 162.706 90.9549C160.806 92.7195 159.041 94.6249 157.427 96.6549C156.396 97.9354 155.328 99.387 154.191 100.963C153.054 102.54 151.88 104.241 150.715 106.049C149.473 107.955 148.335 109.927 147.308 111.957C146.771 113.015 146.3 114.12 145.814 115.248L144.381 118.692C142.492 123.03 140.847 127.47 139.453 131.992C138.331 135.692 137.557 139.488 137.142 143.332C136.873 145.926 136.83 148.539 137.013 151.14C137.086 152.065 137.156 152.772 137.221 153.253C137.248 153.484 137.267 153.669 137.285 153.803V153.992C137.265 153.932 137.251 153.87 137.244 153.807C137.221 153.673 137.193 153.493 137.156 153.262C137.073 152.8 136.985 152.069 136.902 151.145C136.679 148.538 136.694 145.917 136.948 143.314C137.337 139.453 138.094 135.639 139.208 131.923C140.59 127.388 142.231 122.937 144.122 118.59L145.593 115.16C146.078 114.037 146.554 112.923 147.095 111.86C148.13 109.824 149.277 107.847 150.53 105.938C151.713 104.088 152.906 102.415 154.029 100.852C155.153 99.2899 156.239 97.8291 157.265 96.5532C158.896 94.5286 160.684 92.6365 162.614 90.8948C163.298 90.2799 163.844 89.8177 164.213 89.5079L164.643 89.1612C164.696 89.1153 164.753 89.075 164.814 89.041Z" fill="#263238"/>
<path d="M147.155 111.85C147.09 111.66 147.045 111.463 147.021 111.263C146.947 110.879 146.864 110.338 146.767 109.636C146.568 108.249 146.365 106.349 146.147 104.246C145.93 102.142 145.685 100.237 145.482 98.8645C145.375 98.1803 145.283 97.6302 145.218 97.2465C145.168 97.0501 145.141 96.8483 145.14 96.6455C145.219 96.8307 145.277 97.0247 145.311 97.2234C145.412 97.6024 145.528 98.1479 145.657 98.8368C145.921 100.224 146.18 102.11 146.397 104.218C146.614 106.326 146.799 108.175 146.943 109.613C147.012 110.26 147.072 110.81 147.118 111.249C147.154 111.447 147.167 111.649 147.155 111.85Z" fill="#263238"/>
<path d="M164.944 108.531C164.719 108.58 164.49 108.608 164.26 108.614C163.797 108.656 163.141 108.711 162.327 108.804C160.7 108.979 158.463 109.303 156.008 109.765C153.553 110.227 151.348 110.75 149.762 111.152C148.972 111.355 148.334 111.54 147.913 111.665C147.689 111.745 147.456 111.801 147.22 111.832C147.433 111.724 147.656 111.636 147.885 111.568C148.32 111.415 148.949 111.203 149.735 110.976C151.311 110.514 153.516 109.964 155.98 109.492C158.067 109.093 160.173 108.8 162.29 108.614C163.109 108.545 163.77 108.517 164.232 108.508C164.469 108.492 164.708 108.499 164.944 108.531Z" fill="#263238"/>
<path d="M139.435 131.599C139.385 131.532 139.345 131.459 139.314 131.382L139.009 130.739C138.746 130.18 138.39 129.352 137.964 128.34C137.105 126.306 136.009 123.458 134.844 120.296C133.679 117.134 132.607 114.287 131.793 112.229C131.395 111.231 131.067 110.413 130.822 109.802L130.563 109.141C130.527 109.065 130.502 108.984 130.489 108.901C130.539 108.968 130.579 109.041 130.609 109.118L130.915 109.761C131.173 110.32 131.534 111.148 131.959 112.16C132.819 114.194 133.915 117.042 135.08 120.204C136.245 123.366 137.317 126.214 138.131 128.271C138.528 129.269 138.857 130.088 139.097 130.698C139.203 130.961 139.291 131.16 139.361 131.359C139.396 131.435 139.421 131.516 139.435 131.599Z" fill="#263238"/>
<path d="M163.049 123.985C162.975 124.028 162.896 124.06 162.813 124.082L162.129 124.314L159.6 125.132C157.464 125.825 154.515 126.815 151.279 127.906C148.043 128.997 145.08 129.967 142.93 130.615C141.858 130.943 140.984 131.192 140.378 131.359L139.68 131.539C139.599 131.565 139.515 131.582 139.431 131.59C139.505 131.547 139.584 131.515 139.666 131.493L140.351 131.262L142.879 130.444C145.015 129.75 147.964 128.761 151.2 127.67C154.437 126.579 157.395 125.608 159.545 124.961C160.622 124.633 161.491 124.383 162.101 124.216L162.799 124.036C162.88 124.01 162.964 123.993 163.049 123.985Z" fill="#263238"/>
<path d="M153.415 11.8485L151.034 12.6991L150.012 9.58789C148.135 3.85091 142.153 0.804433 136.657 2.74142C131.16 4.6784 128.234 10.9701 130.111 16.7071L131.132 19.8183L128.742 20.6735C127.831 21.027 127.091 21.7181 126.676 22.6032C126.261 23.4882 126.203 24.4992 126.514 25.4259L133.139 45.6694C133.276 46.1282 133.504 46.5546 133.81 46.9233C134.116 47.2921 134.492 47.5957 134.917 47.816C135.343 48.0364 135.808 48.169 136.285 48.2061C136.763 48.2431 137.243 48.1838 137.697 48.0317L162.369 39.2066C163.292 38.8538 164.043 38.1565 164.463 37.2616C164.883 36.3667 164.939 35.3438 164.62 34.4081L157.991 14.1645C157.85 13.7071 157.618 13.2827 157.31 12.9168C157.001 12.5509 156.622 12.2509 156.195 12.0348C155.767 11.8186 155.301 11.6907 154.824 11.6587C154.346 11.6267 153.867 11.6912 153.415 11.8485ZM134.609 15.0845C134.103 13.5928 134.193 11.9631 134.862 10.5369C135.531 9.11069 136.726 7.9986 138.196 7.43363C138.922 7.18522 139.691 7.0856 140.456 7.14072C141.222 7.19585 141.968 7.40459 142.651 7.75449C143.334 8.1044 143.94 8.58829 144.431 9.1773C144.923 9.76631 145.291 10.4484 145.514 11.1828L146.531 14.294L135.626 18.1957L134.609 15.0845ZM148.477 33.049L150.169 38.2173C150.2 38.321 150.19 38.4326 150.141 38.529C150.092 38.6254 150.008 38.6992 149.906 38.7351L147.534 39.5811C147.44 39.6073 147.339 39.5959 147.253 39.5494C147.167 39.5028 147.102 39.4247 147.072 39.3315L145.366 34.1862C144.425 34.135 143.523 33.7976 142.779 33.2192C142.036 32.6409 141.487 31.8492 141.206 30.9502C140.803 29.7616 140.877 28.4636 141.41 27.3279C141.944 26.1922 142.896 25.3068 144.067 24.8572C144.645 24.6596 145.258 24.5805 145.867 24.6245C146.477 24.6685 147.071 24.8349 147.615 25.1135C148.159 25.3922 148.642 25.7776 149.034 26.2466C149.426 26.7156 149.719 27.2588 149.897 27.8436C150.194 28.7569 150.219 29.7371 149.967 30.6641C149.716 31.5912 149.2 32.4248 148.482 33.0628L148.477 33.049Z" fill="#008080"/>
<path d="M150.927 12.6437C150.927 12.7085 146.512 14.3681 141.02 16.342C135.528 18.316 131.049 19.9016 131.025 19.8554C131.002 19.8092 135.44 18.1357 140.937 16.1571C146.434 14.1785 150.904 12.5836 150.927 12.6437Z" fill="#263238"/>
<path d="M156.17 13.4941C156.191 13.5343 156.208 13.576 156.221 13.619C156.258 13.7114 156.3 13.8316 156.355 13.9795C156.475 14.317 156.642 14.7839 156.85 15.3664L158.625 20.5348C159.365 22.726 160.247 25.3241 161.228 28.2087C161.69 29.6557 162.235 31.1628 162.744 32.7484C163.016 33.5655 163.134 34.4262 163.091 35.2864C163.051 35.7337 162.924 36.1689 162.716 36.5669C162.494 36.9636 162.197 37.3136 161.842 37.5978C161.128 38.1192 160.335 38.5233 159.494 38.7951L157.113 39.6504L152.606 41.2637L144.974 43.982L139.819 45.7942L138.432 46.2564L138.062 46.3766C138.023 46.3942 137.981 46.4052 137.938 46.409C137.938 46.409 137.974 46.409 138.053 46.3535L138.414 46.2102L139.801 45.6878L144.927 43.8017L152.546 41.028L157.044 39.4007L159.425 38.5409C160.242 38.2801 161.012 37.8882 161.704 37.3805C162.034 37.1168 162.31 36.7919 162.517 36.4236C162.713 36.0555 162.831 35.6511 162.864 35.2355C162.907 34.4067 162.794 33.5773 162.531 32.79C162.032 31.2182 161.505 29.6973 161.029 28.2504C160.067 25.3611 159.18 22.7538 158.477 20.5625C157.774 18.3713 157.183 16.61 156.776 15.371C156.582 14.7654 156.434 14.2939 156.313 13.9518L156.202 13.582C156.189 13.554 156.178 13.5245 156.17 13.4941Z" fill="#263238"/>
<path d="M143.152 7.11929C143.152 7.11929 142.907 6.9991 142.454 6.81418C141.808 6.56606 141.125 6.42853 140.433 6.40737C139.409 6.37222 138.389 6.56485 137.447 6.97136C136.302 7.47755 135.323 8.2963 134.622 9.33365C133.917 10.368 133.539 11.5904 133.536 12.8424C133.546 13.8686 133.701 14.8881 133.998 15.8704C134.239 16.7118 134.488 17.3821 134.655 17.849C134.753 18.0861 134.833 18.3303 134.895 18.5794C134.764 18.3577 134.654 18.1239 134.567 17.8813C134.377 17.4191 134.105 16.7626 133.837 15.9166C133.507 14.924 133.328 13.8879 133.305 12.8424C133.293 11.5431 133.68 10.2714 134.414 9.19958C135.14 8.12435 136.159 7.28028 137.35 6.76795C138.321 6.35921 139.373 6.17891 140.424 6.24094C141.131 6.27695 141.825 6.44144 142.472 6.72634C142.645 6.80621 142.812 6.89893 142.971 7.00372C143.037 7.03261 143.098 7.0716 143.152 7.11929Z" fill="#263238"/>
<path d="M143.364 25.2085C143.438 25.1638 143.515 25.1251 143.595 25.0929C143.827 24.9885 144.066 24.9034 144.312 24.8387C144.701 24.7236 145.103 24.6554 145.509 24.6352C146.061 24.6056 146.613 24.689 147.132 24.8803C148.315 25.2963 149.402 26.5029 149.938 28.1163C150.195 28.9821 150.195 29.904 149.938 30.7698C149.653 31.7095 149.142 32.565 148.449 33.2615L148.477 33.1367C149.092 34.8241 149.762 36.6547 150.456 38.564L150.497 38.6795L150.382 38.7211L149.323 39.0725L147.012 39.8445L146.896 39.8815L146.859 39.7659C146.226 37.852 145.532 36.0676 145.01 34.3155L145.112 34.3941C144.208 34.3191 143.346 33.9798 142.634 33.4187C141.989 32.9223 141.461 32.2912 141.085 31.5696C140.746 30.9296 140.577 30.2132 140.595 29.4893C140.616 28.7493 140.801 28.0233 141.136 27.3632C141.471 26.703 141.948 26.1251 142.532 25.6708C142.773 25.4755 143.042 25.3195 143.332 25.2085C143.071 25.3634 142.818 25.5316 142.574 25.7124C141.932 26.2555 141.44 26.9543 141.145 27.7418C140.892 28.3357 140.774 28.9782 140.799 29.6232C140.823 30.2682 140.991 30.8997 141.288 31.4725C141.658 32.1667 142.174 32.7724 142.8 33.2477C143.48 33.781 144.301 34.1026 145.162 34.1722H145.241L145.264 34.2416C145.773 35.9613 146.471 37.7596 147.113 39.6827L146.961 39.6087L149.272 38.8367L150.326 38.4808L150.252 38.6379C149.563 36.7287 148.898 34.8934 148.287 33.2061V33.1367L148.343 33.0812C149.015 32.4136 149.516 31.5938 149.804 30.6912C150.049 29.863 150.049 28.9815 149.804 28.1533C149.3 26.6 148.26 25.4211 147.132 25.0051C146.632 24.8125 146.099 24.7229 145.565 24.7416C145.165 24.7507 144.768 24.805 144.381 24.9034C143.692 25.0744 143.369 25.2316 143.364 25.2085Z" fill="#263238"/>
<path d="M129.075 158.69L82.8973 158.477C80.2305 158.462 77.6787 157.39 75.8021 155.495C73.9255 153.6 72.8777 151.038 72.8888 148.371L73.3788 32.61C73.3842 31.2888 73.65 29.9816 74.1609 28.7632C74.6719 27.5448 75.4179 26.439 76.3564 25.5091C77.2949 24.5791 78.4075 23.8433 79.6306 23.3436C80.8536 22.8439 82.1632 22.5901 83.4844 22.5968L129.658 22.8095C132.324 22.8229 134.877 23.8942 136.754 25.7882C138.632 27.6821 139.681 30.2437 139.671 32.9104L139.181 148.667C139.175 149.989 138.91 151.296 138.399 152.515C137.888 153.734 137.142 154.841 136.204 155.771C135.265 156.702 134.153 157.439 132.93 157.939C131.707 158.44 130.397 158.695 129.075 158.69Z" fill="#455A64"/>
<path d="M129.588 26.7896H120.638C120.346 26.795 120.058 26.8579 119.791 26.9747C119.523 27.0915 119.281 27.2599 119.078 27.4702C118.876 27.6806 118.716 27.9288 118.61 28.2007C118.503 28.4726 118.451 28.7628 118.456 29.0548V30.6775C118.462 30.9693 118.41 31.2593 118.303 31.5309C118.196 31.8025 118.037 32.0504 117.834 32.2604C117.632 32.4704 117.39 32.6384 117.122 32.7546C116.854 32.8709 116.566 32.9332 116.274 32.938L98.8277 32.8595C98.2375 32.8437 97.6776 32.5944 97.2711 32.1662C96.8646 31.738 96.6447 31.166 96.6596 30.5758V28.9531C96.6745 28.3637 96.4552 27.7923 96.0496 27.3643C95.6441 26.9362 95.0855 26.6864 94.4961 26.6694H91.3479L83.5121 26.6324C81.6484 26.6214 79.8561 27.3492 78.5279 28.6567C77.1996 29.9641 76.4436 31.7447 76.4253 33.6084L75.963 146.601C75.9587 147.525 76.1366 148.442 76.4865 149.297C76.8364 150.153 77.3514 150.932 78.0022 151.589C78.653 152.245 79.4268 152.768 80.2794 153.125C81.1319 153.483 82.0467 153.669 82.9712 153.674L129.052 153.886C129.977 153.891 130.894 153.713 131.751 153.362C132.607 153.012 133.386 152.497 134.043 151.846C134.701 151.194 135.223 150.42 135.581 149.567C135.939 148.714 136.125 147.799 136.13 146.873L136.592 33.8811C136.603 32.0122 135.871 30.2153 134.558 28.8855C133.245 27.5557 131.457 26.8018 129.588 26.7896Z" fill="white"/>
<path d="M123.302 140L88.6453 139.836C88.2853 139.836 87.9954 139.406 88.0001 138.883L88.0375 128.953C88.0375 128.44 88.332 128 88.6921 128L123.348 128.174C123.548 128.212 123.726 128.333 123.847 128.511C123.967 128.69 124.019 128.912 123.994 129.132L123.961 139.052C123.961 139.58 123.662 140.005 123.302 140Z" fill="#008080"/>
<path d="M91.6482 136V131.678H92.1545L94.0931 134.944H93.8214L95.7353 131.678H96.2415L96.2477 136H95.655L95.6489 132.611H95.7909L94.0869 135.475H93.8029L92.0866 132.611H92.2409V136H91.6482ZM98.1065 133.543H100.329V134.068H98.1065V133.543ZM98.1621 135.463H100.681V136H97.5447V131.678H100.595V132.215H98.1621V135.463ZM101.681 136V131.678H102.187L104.125 134.944H103.854L105.768 131.678H106.274L106.28 136H105.687L105.681 132.611H105.823L104.119 135.475H103.835L102.119 132.611H102.273V136H101.681ZM107.577 136V131.678H109.516C110.014 131.678 110.396 131.779 110.664 131.981C110.931 132.178 111.065 132.45 111.065 132.796C111.065 133.03 111.012 133.228 110.905 133.388C110.802 133.549 110.662 133.672 110.485 133.759C110.308 133.845 110.117 133.889 109.911 133.889L110.022 133.703C110.269 133.703 110.487 133.747 110.676 133.833C110.866 133.919 111.016 134.047 111.127 134.216C111.238 134.38 111.294 134.586 111.294 134.833C111.294 135.204 111.154 135.492 110.874 135.697C110.598 135.899 110.187 136 109.639 136H107.577ZM108.194 135.5H109.614C109.956 135.5 110.217 135.442 110.398 135.327C110.58 135.212 110.67 135.031 110.67 134.784C110.67 134.533 110.58 134.35 110.398 134.234C110.217 134.119 109.956 134.061 109.614 134.061H108.139V133.561H109.46C109.773 133.561 110.016 133.504 110.189 133.388C110.361 133.273 110.448 133.1 110.448 132.87C110.448 132.639 110.361 132.467 110.189 132.351C110.016 132.236 109.773 132.178 109.46 132.178H108.194V135.5ZM112.811 133.543H115.034V134.068H112.811V133.543ZM112.867 135.463H115.386V136H112.25V131.678H115.299V132.215H112.867V135.463ZM116.386 136V131.678H118.071C118.45 131.678 118.773 131.738 119.04 131.857C119.308 131.977 119.514 132.15 119.658 132.376C119.802 132.602 119.874 132.872 119.874 133.185C119.874 133.498 119.802 133.767 119.658 133.994C119.514 134.216 119.308 134.387 119.04 134.506C118.773 134.625 118.45 134.685 118.071 134.685H116.725L117.003 134.401V136H116.386ZM119.275 136L118.176 134.432H118.837L119.948 136H119.275ZM117.003 134.463L116.725 134.16H118.052C118.448 134.16 118.746 134.076 118.948 133.907C119.153 133.734 119.256 133.493 119.256 133.185C119.256 132.876 119.153 132.637 118.948 132.469C118.746 132.3 118.448 132.215 118.052 132.215H116.725L117.003 131.907V134.463Z" fill="#E8E8E3"/>
<path d="M95.9592 60.0051L84.0693 59.9512L84.0594 62.1331L95.9493 62.1871L95.9592 60.0051Z" fill="#008080"/>
<path opacity="0.1" d="M95.9592 60.0051L84.0693 59.9512L84.0594 62.1331L95.9493 62.1871L95.9592 60.0051Z" fill="black"/>
<path d="M130.813 73.4024C130.906 73.393 130.998 73.3712 131.086 73.3377C131.214 73.2877 131.325 73.2026 131.407 73.0922C131.488 72.9818 131.537 72.8506 131.548 72.7136C131.548 71.9786 131.548 70.906 131.548 69.5284C131.548 68.8396 131.548 68.0676 131.548 67.217C131.548 67.009 131.548 66.7917 131.548 66.5744C131.578 66.3636 131.532 66.1489 131.418 65.9688C131.355 65.8825 131.272 65.8121 131.177 65.7631C131.081 65.7142 130.976 65.6881 130.868 65.6868H130.147H123.467L84.8014 65.5435C84.7025 65.5418 84.6046 65.5641 84.516 65.6083C84.4275 65.6526 84.351 65.7176 84.2929 65.7978C84.1813 65.9786 84.1386 66.1936 84.1727 66.4034C84.1727 66.8657 84.1727 67.3279 84.1727 67.7902C84.1727 68.7148 84.1727 69.6394 84.1727 70.564C84.1727 71.0262 84.1727 71.4885 84.1727 71.9508C84.1535 72.1661 84.1535 72.3827 84.1727 72.598C84.197 72.6903 84.2421 72.7758 84.3047 72.848C84.3672 72.9201 84.4454 72.9769 84.5333 73.0141C84.6244 73.0503 84.7219 73.0676 84.8199 73.0649H87.173L97.4404 73.1204L114.822 73.2267L126.541 73.3192L129.727 73.3562H130.554C130.744 73.3562 130.836 73.3562 130.836 73.3562H130.554H129.727H126.541H114.822L97.4404 73.3007L87.173 73.2591H84.8199C84.6904 73.2643 84.5613 73.2423 84.4408 73.1944C84.3191 73.1424 84.2109 73.0634 84.1243 72.9632C84.0378 72.8631 83.9753 72.7445 83.9416 72.6165C83.9148 72.4952 83.9055 72.3707 83.9138 72.2467V71.9046C83.9138 71.4423 83.9138 70.98 83.9138 70.5177C83.9138 69.5932 83.9138 68.6686 83.9138 67.744C83.9138 67.2817 83.9138 66.8194 83.9138 66.3571C83.905 66.234 83.905 66.1104 83.9138 65.9873C83.9312 65.8513 83.9838 65.7222 84.0664 65.6129C84.1461 65.5013 84.2517 65.4106 84.374 65.3486C84.4964 65.2867 84.6319 65.2552 84.7691 65.2569L123.435 65.4696L130.115 65.5158H130.836C130.963 65.5159 131.088 65.5466 131.201 65.6053C131.314 65.6641 131.41 65.7491 131.483 65.8532C131.614 66.0542 131.666 66.2958 131.631 66.5328C131.631 66.7501 131.631 66.9674 131.631 67.1754C131.631 68.0168 131.631 68.7888 131.631 69.4868C131.631 70.8737 131.599 71.9369 131.59 72.6766C131.578 72.8188 131.527 72.9549 131.441 73.0687C131.355 73.1825 131.238 73.2694 131.104 73.3192C131.017 73.3734 130.916 73.4022 130.813 73.4024Z" fill="#E0E0E0"/>
<path d="M109.387 67.8638H87.6406V69.9025H109.387V67.8638Z" fill="#008080"/>
<path opacity="0.2" d="M109.387 67.8638H87.6406V69.9025H109.387V67.8638Z" fill="white"/>
<path d="M95.8782 79.9109L83.9883 79.8569L83.9784 82.0389L95.8683 82.0929L95.8782 79.9109Z" fill="#008080"/>
<path opacity="0.1" d="M95.8782 79.9109L83.9883 79.8569L83.9784 82.0389L95.8683 82.0929L95.8782 79.9109Z" fill="black"/>
<path d="M130.513 93.3085C130.606 93.297 130.699 93.2801 130.79 93.2577C130.919 93.2166 131.038 93.1483 131.139 93.0574C131.239 92.9664 131.319 92.855 131.373 92.7307C131.446 92.544 131.474 92.3431 131.456 92.1435C131.456 91.9217 131.456 91.6813 131.456 91.4131C131.456 90.8769 131.456 90.2667 131.456 89.564V86.6285C131.478 86.4159 131.431 86.202 131.322 86.0182C131.208 85.8298 131.029 85.69 130.818 85.6253C130.588 85.5842 130.353 85.5718 130.12 85.5883H123.468L84.9361 85.445C84.7288 85.4455 84.5288 85.5212 84.3732 85.6581C84.2176 85.795 84.117 85.9838 84.0901 86.1893C84.0901 86.6285 84.0901 87.1139 84.0901 87.5762C84.0901 88.5007 84.0901 89.4253 84.0901 90.3499C84.0901 90.8122 84.0901 91.2745 84.0901 91.7367C84.0729 91.9528 84.0822 92.1701 84.1178 92.3839C84.1755 92.5714 84.2943 92.7341 84.4553 92.8462C84.626 92.9546 84.8266 93.0064 85.0285 92.9942H85.6711H87.0071L97.2375 93.045L114.559 93.1513L126.237 93.2438L129.413 93.2808H126.237H114.559L97.2283 93.2623L86.9979 93.2253H84.9869C84.7369 93.2401 84.4887 93.1736 84.2796 93.0358C84.0693 92.8901 83.9157 92.6761 83.8451 92.4302C83.8036 92.1953 83.7912 91.9562 83.8081 91.7182C83.8081 91.256 83.8081 90.7937 83.8081 90.3314C83.8081 89.4068 83.8081 88.4822 83.8081 87.5577C83.8081 87.0954 83.8081 86.6331 83.8081 86.1708C83.8418 85.9065 83.9707 85.6635 84.1707 85.4873C84.3707 85.3112 84.628 85.214 84.8945 85.2139L123.426 85.4265L130.078 85.4774C130.326 85.4622 130.575 85.4793 130.818 85.5282C131.058 85.6067 131.261 85.7714 131.387 85.9905C131.506 86.1941 131.558 86.4305 131.535 86.6654C131.535 86.8827 131.535 87.0954 131.535 87.308C131.535 88.1448 131.535 88.9122 131.535 89.6195C131.535 90.3268 131.535 90.9231 131.535 91.4686C131.535 91.7321 131.535 91.9771 131.535 92.2036C131.551 92.4104 131.518 92.6181 131.438 92.8092C131.378 92.9368 131.291 93.0499 131.183 93.1409C131.075 93.2318 130.949 93.2985 130.813 93.3363C130.712 93.3446 130.611 93.3352 130.513 93.3085Z" fill="#E0E0E0"/>
<path d="M95.7883 100.68L83.8984 100.626L83.8885 102.808L95.7784 102.862L95.7883 100.68Z" fill="#008080"/>
<path opacity="0.1" d="M95.7883 100.68L83.8984 100.626L83.8885 102.808L95.7784 102.862L95.7883 100.68Z" fill="black"/>
<path d="M130.421 114.07C130.514 114.059 130.607 114.042 130.698 114.019C130.826 113.978 130.945 113.91 131.045 113.82C131.146 113.73 131.226 113.62 131.28 113.497C131.353 113.31 131.381 113.109 131.364 112.909C131.364 112.683 131.364 112.447 131.364 112.174C131.364 111.643 131.364 111.028 131.364 110.325V107.39C131.386 107.177 131.339 106.963 131.23 106.78C131.113 106.595 130.934 106.457 130.726 106.391C130.496 106.348 130.261 106.334 130.028 106.35H123.375L84.8437 106.206C84.6364 106.207 84.4364 106.283 84.2808 106.419C84.1252 106.556 84.0246 106.745 83.9977 106.951C83.9977 107.413 83.9977 107.875 83.9977 108.337C83.9977 109.262 83.9977 110.187 83.9977 111.111C83.9977 111.573 83.9977 112.036 83.9977 112.498C83.9805 112.713 83.9898 112.928 84.0254 113.141C84.0808 113.329 84.2001 113.493 84.3629 113.603C84.5326 113.714 84.734 113.766 84.9361 113.751H86.9471L97.1775 113.806L114.499 113.913L126.177 114.005L129.353 114.042H126.177H114.499L97.1775 113.991L86.9471 113.95H84.9361C84.6859 113.966 84.4371 113.9 84.2288 113.76C84.0185 113.614 83.865 113.4 83.7943 113.154C83.7528 112.92 83.7404 112.68 83.7573 112.443C83.7573 111.98 83.7573 111.518 83.7573 111.056C83.7573 110.131 83.7573 109.207 83.7573 108.282C83.7573 107.82 83.7573 107.357 83.7573 106.872C83.79 106.608 83.918 106.365 84.1172 106.189C84.3164 106.013 84.5731 105.915 84.839 105.915L123.371 106.128L130.023 106.179C130.271 106.163 130.519 106.18 130.763 106.229C131.003 106.308 131.205 106.473 131.331 106.692C131.451 106.895 131.503 107.132 131.479 107.367C131.479 107.584 131.479 107.801 131.479 108.009C131.479 108.846 131.479 109.613 131.479 110.321C131.479 111.028 131.479 111.624 131.479 112.17C131.479 112.433 131.479 112.678 131.479 112.905C131.497 113.112 131.464 113.32 131.382 113.51C131.322 113.638 131.235 113.751 131.128 113.842C131.02 113.933 130.894 114 130.758 114.037C130.65 114.075 130.534 114.086 130.421 114.07Z" fill="#E0E0E0"/>
<path d="M108.923 88.3462L87.1768 88.2476L87.1675 90.2862L108.913 90.3849L108.923 88.3462Z" fill="#008080"/>
<path opacity="0.2" d="M108.923 88.3462L87.1768 88.2476L87.1675 90.2862L108.913 90.3849L108.923 88.3462Z" fill="white"/>
<path d="M89.1423 110.297C89.1287 110.483 89.0607 110.661 88.9469 110.809C88.8332 110.957 88.6785 111.068 88.5022 111.128C88.3259 111.189 88.1356 111.196 87.9551 111.15C87.7745 111.103 87.6116 111.005 87.4864 110.867C87.3613 110.728 87.2796 110.557 87.2513 110.372C87.223 110.188 87.2494 109.999 87.3273 109.83C87.4051 109.661 87.531 109.518 87.6893 109.419C87.8476 109.321 88.0313 109.271 88.2177 109.276C88.4753 109.29 88.7168 109.405 88.8899 109.597C89.063 109.788 89.1537 110.04 89.1423 110.297Z" fill="#008080"/>
<path d="M92.0879 110.311C92.097 110.441 92.0791 110.572 92.0355 110.695C91.9919 110.819 91.9234 110.931 91.8343 111.027C91.7452 111.122 91.6374 111.199 91.5176 111.251C91.3978 111.303 91.2685 111.33 91.1379 111.33C91.0072 111.33 90.878 111.303 90.7581 111.251C90.6383 111.199 90.5305 111.122 90.4414 111.027C90.3523 110.931 90.2838 110.819 90.2402 110.695C90.1966 110.572 90.1788 110.441 90.1879 110.311C90.1788 110.181 90.1966 110.05 90.2402 109.927C90.2838 109.804 90.3523 109.691 90.4414 109.595C90.5305 109.5 90.6383 109.424 90.7581 109.371C90.878 109.319 91.0072 109.292 91.1379 109.292C91.2685 109.292 91.3978 109.319 91.5176 109.371C91.6374 109.424 91.7452 109.5 91.8343 109.595C91.9234 109.691 91.9919 109.804 92.0355 109.927C92.0791 110.05 92.097 110.181 92.0879 110.311Z" fill="#008080"/>
<path d="M95.0368 110.325C95.0232 110.511 94.9553 110.689 94.8415 110.837C94.7277 110.984 94.573 111.095 94.3967 111.156C94.2204 111.217 94.0302 111.224 93.8496 111.178C93.669 111.131 93.5061 111.033 93.381 110.895C93.2559 110.756 93.1741 110.584 93.1458 110.4C93.1175 110.216 93.1439 110.027 93.2218 109.858C93.2997 109.688 93.4256 109.546 93.5838 109.447C93.7421 109.349 93.9259 109.299 94.1123 109.304C94.3694 109.319 94.6102 109.435 94.783 109.626C94.9559 109.817 95.047 110.068 95.0368 110.325Z" fill="#008080"/>
<path d="M97.9822 110.339C97.9685 110.525 97.9006 110.703 97.7868 110.85C97.673 110.998 97.5183 111.109 97.342 111.17C97.1657 111.23 96.9755 111.238 96.7949 111.191C96.6143 111.145 96.4514 111.046 96.3263 110.908C96.2012 110.77 96.1194 110.598 96.0911 110.414C96.0628 110.229 96.0892 110.041 96.1671 109.871C96.245 109.702 96.3709 109.559 96.5292 109.461C96.6875 109.362 96.8712 109.312 97.0576 109.317C97.3147 109.333 97.5555 109.448 97.7283 109.639C97.9012 109.83 97.9923 110.082 97.9822 110.339Z" fill="#008080"/>
<path d="M100.927 110.348C100.914 110.535 100.847 110.713 100.734 110.861C100.62 111.01 100.466 111.122 100.29 111.183C100.113 111.244 99.9228 111.252 99.7419 111.206C99.561 111.16 99.3976 111.062 99.2721 110.924C99.1465 110.786 99.0643 110.614 99.0357 110.429C99.0071 110.245 99.0333 110.056 99.1111 109.886C99.1889 109.717 99.3148 109.574 99.4732 109.475C99.6317 109.376 99.8156 109.326 100.002 109.331C100.259 109.347 100.499 109.462 100.671 109.652C100.844 109.842 100.936 110.092 100.927 110.348Z" fill="#008080"/>
<path d="M103.876 110.362C103.863 110.548 103.797 110.725 103.685 110.873C103.573 111.021 103.419 111.133 103.244 111.195C103.069 111.257 102.88 111.267 102.7 111.223C102.519 111.178 102.356 111.083 102.229 110.947C102.103 110.811 102.019 110.641 101.987 110.458C101.956 110.275 101.979 110.087 102.053 109.917C102.127 109.746 102.25 109.602 102.405 109.5C102.561 109.399 102.743 109.345 102.928 109.345C103.189 109.355 103.435 109.467 103.612 109.658C103.79 109.849 103.885 110.102 103.876 110.362Z" fill="#008080"/>
<path d="M106.82 110.376C106.829 110.506 106.812 110.637 106.768 110.76C106.724 110.883 106.656 110.996 106.567 111.092C106.478 111.187 106.37 111.264 106.25 111.316C106.13 111.368 106.001 111.395 105.87 111.395C105.74 111.395 105.61 111.368 105.491 111.316C105.371 111.264 105.263 111.187 105.174 111.092C105.085 110.996 105.016 110.883 104.973 110.76C104.929 110.637 104.911 110.506 104.92 110.376C104.911 110.246 104.929 110.115 104.973 109.992C105.016 109.869 105.085 109.756 105.174 109.66C105.263 109.565 105.371 109.488 105.491 109.436C105.61 109.384 105.74 109.357 105.87 109.357C106.001 109.357 106.13 109.384 106.25 109.436C106.37 109.488 106.478 109.565 106.567 109.66C106.656 109.756 106.724 109.869 106.768 109.992C106.812 110.115 106.829 110.246 106.82 110.376Z" fill="#008080"/>
<path d="M109.766 110.39C109.753 110.575 109.687 110.752 109.574 110.9C109.462 111.048 109.309 111.16 109.134 111.222C108.959 111.284 108.77 111.294 108.589 111.25C108.409 111.206 108.245 111.11 108.119 110.974C107.992 110.838 107.908 110.668 107.877 110.485C107.846 110.302 107.869 110.114 107.943 109.944C108.017 109.774 108.14 109.629 108.295 109.527C108.451 109.426 108.632 109.372 108.818 109.373C109.078 109.382 109.324 109.495 109.502 109.685C109.68 109.876 109.774 110.129 109.766 110.39Z" fill="#008080"/>
<path d="M112.71 110.404C112.697 110.59 112.63 110.768 112.517 110.917C112.403 111.065 112.249 111.177 112.073 111.238C111.896 111.299 111.706 111.307 111.525 111.261C111.344 111.215 111.181 111.117 111.055 110.979C110.93 110.841 110.848 110.669 110.819 110.485C110.79 110.3 110.816 110.111 110.894 109.942C110.972 109.772 111.098 109.629 111.256 109.53C111.415 109.432 111.599 109.382 111.785 109.387C112.042 109.402 112.282 109.517 112.455 109.707C112.627 109.897 112.719 110.147 112.71 110.404Z" fill="#008080"/>
<g opacity="0.2">
<path d="M89.1423 110.297C89.1287 110.483 89.0607 110.661 88.9469 110.809C88.8332 110.957 88.6785 111.068 88.5022 111.128C88.3259 111.189 88.1356 111.196 87.9551 111.15C87.7745 111.103 87.6116 111.005 87.4864 110.867C87.3613 110.728 87.2796 110.557 87.2513 110.372C87.223 110.188 87.2494 109.999 87.3273 109.83C87.4051 109.661 87.531 109.518 87.6893 109.419C87.8476 109.321 88.0313 109.271 88.2177 109.276C88.4753 109.29 88.7168 109.405 88.8899 109.597C89.063 109.788 89.1537 110.04 89.1423 110.297Z" fill="white"/>
<path d="M92.0869 110.311C92.096 110.441 92.0782 110.572 92.0345 110.695C91.9909 110.819 91.9224 110.931 91.8333 111.027C91.7442 111.122 91.6364 111.199 91.5166 111.251C91.3968 111.303 91.2675 111.33 91.1369 111.33C91.0062 111.33 90.877 111.303 90.7572 111.251C90.6374 111.199 90.5295 111.122 90.4404 111.027C90.3513 110.931 90.2828 110.819 90.2392 110.695C90.1956 110.572 90.1778 110.441 90.1869 110.311C90.1778 110.181 90.1956 110.05 90.2392 109.927C90.2828 109.804 90.3513 109.691 90.4404 109.595C90.5295 109.5 90.6374 109.424 90.7572 109.371C90.877 109.319 91.0062 109.292 91.1369 109.292C91.2675 109.292 91.3968 109.319 91.5166 109.371C91.6364 109.424 91.7442 109.5 91.8333 109.595C91.9224 109.691 91.9909 109.804 92.0345 109.927C92.0782 110.05 92.096 110.181 92.0869 110.311Z" fill="white"/>
<path d="M95.0368 110.325C95.0232 110.511 94.9553 110.689 94.8415 110.837C94.7277 110.984 94.573 111.095 94.3967 111.156C94.2204 111.217 94.0302 111.224 93.8496 111.178C93.669 111.131 93.5061 111.033 93.381 110.895C93.2559 110.756 93.1741 110.584 93.1458 110.4C93.1175 110.216 93.1439 110.027 93.2218 109.858C93.2997 109.688 93.4256 109.546 93.5838 109.447C93.7421 109.349 93.9259 109.299 94.1123 109.304C94.3694 109.319 94.6102 109.435 94.783 109.626C94.9559 109.817 95.047 110.068 95.0368 110.325Z" fill="white"/>
<path d="M97.9812 110.339C97.9675 110.525 97.8996 110.703 97.7858 110.85C97.672 110.998 97.5174 111.109 97.3411 111.17C97.1647 111.23 96.9745 111.238 96.7939 111.191C96.6134 111.145 96.4504 111.046 96.3253 110.908C96.2002 110.77 96.1184 110.598 96.0901 110.414C96.0618 110.229 96.0883 110.041 96.1661 109.871C96.244 109.702 96.3699 109.559 96.5282 109.461C96.6865 109.362 96.8702 109.312 97.0566 109.317C97.3137 109.333 97.5545 109.448 97.7274 109.639C97.9002 109.83 97.9913 110.082 97.9812 110.339Z" fill="white"/>
<path d="M100.926 110.348C100.913 110.535 100.846 110.713 100.733 110.861C100.619 111.01 100.465 111.122 100.289 111.183C100.112 111.244 99.9219 111.252 99.741 111.206C99.56 111.16 99.3967 111.062 99.2711 110.924C99.1455 110.786 99.0633 110.614 99.0347 110.429C99.0061 110.245 99.0323 110.056 99.1101 109.886C99.1879 109.717 99.3138 109.574 99.4723 109.475C99.6307 109.376 99.8147 109.326 100.001 109.331C100.258 109.347 100.498 109.462 100.67 109.652C100.843 109.842 100.935 110.092 100.926 110.348Z" fill="white"/>
<path d="M103.875 110.362C103.862 110.548 103.796 110.725 103.684 110.873C103.572 111.021 103.419 111.133 103.244 111.195C103.069 111.257 102.879 111.267 102.699 111.223C102.518 111.178 102.355 111.083 102.228 110.947C102.102 110.811 102.018 110.641 101.986 110.458C101.955 110.275 101.978 110.087 102.052 109.917C102.126 109.746 102.249 109.602 102.404 109.5C102.56 109.399 102.742 109.345 102.927 109.345C103.188 109.355 103.434 109.467 103.611 109.658C103.789 109.849 103.884 110.102 103.875 110.362Z" fill="white"/>
<path d="M106.82 110.376C106.829 110.506 106.812 110.637 106.768 110.76C106.724 110.883 106.656 110.996 106.567 111.092C106.478 111.187 106.37 111.264 106.25 111.316C106.13 111.368 106.001 111.395 105.87 111.395C105.74 111.395 105.61 111.368 105.491 111.316C105.371 111.264 105.263 111.187 105.174 111.092C105.085 110.996 105.016 110.883 104.973 110.76C104.929 110.637 104.911 110.506 104.92 110.376C104.911 110.246 104.929 110.115 104.973 109.992C105.016 109.869 105.085 109.756 105.174 109.66C105.263 109.565 105.371 109.488 105.491 109.436C105.61 109.384 105.74 109.357 105.87 109.357C106.001 109.357 106.13 109.384 106.25 109.436C106.37 109.488 106.478 109.565 106.567 109.66C106.656 109.756 106.724 109.869 106.768 109.992C106.812 110.115 106.829 110.246 106.82 110.376Z" fill="white"/>
<path d="M109.765 110.39C109.752 110.575 109.686 110.753 109.573 110.901C109.461 111.049 109.308 111.161 109.133 111.223C108.958 111.285 108.769 111.295 108.588 111.25C108.408 111.206 108.244 111.11 108.118 110.975C107.991 110.839 107.907 110.669 107.876 110.486C107.845 110.303 107.868 110.115 107.942 109.944C108.016 109.774 108.139 109.629 108.294 109.528C108.45 109.426 108.631 109.373 108.817 109.373C109.077 109.383 109.323 109.495 109.501 109.686C109.679 109.876 109.773 110.13 109.765 110.39Z" fill="white"/>
<path d="M112.71 110.404C112.697 110.59 112.63 110.768 112.517 110.917C112.403 111.065 112.249 111.177 112.073 111.238C111.896 111.299 111.706 111.307 111.525 111.261C111.344 111.215 111.181 111.117 111.055 110.979C110.93 110.841 110.848 110.669 110.819 110.485C110.79 110.3 110.816 110.111 110.894 109.942C110.972 109.772 111.098 109.629 111.256 109.53C111.415 109.432 111.599 109.382 111.785 109.387C112.042 109.402 112.282 109.517 112.455 109.707C112.627 109.897 112.719 110.147 112.71 110.404Z" fill="white"/>
</g>
<path d="M108.526 43.6678C108.848 43.5264 109.12 43.2937 109.31 42.9986C109.5 42.7035 109.599 42.3591 109.594 42.0082C109.606 41.7801 109.572 41.552 109.493 41.3377C109.414 41.1234 109.292 40.9274 109.135 40.7618C108.977 40.5961 108.788 40.4641 108.578 40.374C108.368 40.2838 108.142 40.2373 107.914 40.2373C107.686 40.2373 107.46 40.2838 107.25 40.374C107.04 40.4641 106.851 40.5961 106.693 40.7618C106.536 40.9274 106.414 41.1234 106.335 41.3377C106.256 41.552 106.222 41.7801 106.234 42.0082C106.226 42.3626 106.325 42.7111 106.515 43.0098C106.706 43.3084 106.981 43.5439 107.306 43.6863C104.717 44.0746 104.833 46.8853 104.833 46.8853L110.953 46.9131C110.953 46.9131 111.097 44.0515 108.526 43.6678Z" fill="#008080"/>
<path opacity="0.1" d="M108.526 43.6678C108.848 43.5264 109.12 43.2937 109.31 42.9986C109.5 42.7035 109.599 42.3591 109.594 42.0082C109.606 41.7801 109.572 41.552 109.493 41.3377C109.414 41.1234 109.292 40.9274 109.135 40.7618C108.977 40.5961 108.788 40.4641 108.578 40.374C108.368 40.2838 108.142 40.2373 107.914 40.2373C107.686 40.2373 107.46 40.2838 107.25 40.374C107.04 40.4641 106.851 40.5961 106.693 40.7618C106.536 40.9274 106.414 41.1234 106.335 41.3377C106.256 41.552 106.222 41.7801 106.234 42.0082C106.226 42.3626 106.325 42.7111 106.515 43.0098C106.706 43.3084 106.981 43.5439 107.306 43.6863C104.717 44.0746 104.833 46.8853 104.833 46.8853L110.953 46.9131C110.953 46.9131 111.097 44.0515 108.526 43.6678Z" fill="black"/>
<path d="M118.472 48.7259L96.6572 48.627L96.6454 51.2342L118.461 51.3332L118.472 48.7259Z" fill="#008080"/>
<path opacity="0.2" d="M118.472 48.7259L96.6572 48.627L96.6454 51.2342L118.461 51.3332L118.472 48.7259Z" fill="white"/>
<path d="M38.2733 62.2378H38.056L37.4273 62.2841C37.087 62.3045 36.7487 62.3493 36.4149 62.4181C36.1986 62.4485 35.9841 62.4901 35.7723 62.5429L35.0557 62.7417C33.8361 63.1159 32.6855 63.6858 31.6487 64.4291C30.2789 65.4233 29.135 66.6963 28.2925 68.1644C27.7972 69.0106 27.4031 69.912 27.1183 70.8502C26.8189 71.8699 26.6466 72.9226 26.6051 73.9845C26.5776 74.5424 26.5868 75.1014 26.6329 75.658C26.6329 75.94 26.7114 76.222 26.7484 76.5086C26.7795 76.7976 26.8336 77.0835 26.9102 77.3639C27.3259 79.2189 28.1694 80.9511 29.3733 82.4224C30.5773 83.8936 32.1084 85.0631 33.8445 85.8376C35.1011 86.3798 36.4479 86.6824 37.8156 86.7298C39.2282 86.8075 40.6422 86.6048 41.9762 86.1335L42.383 85.9809H42.4385L42.4847 86.0086L48.3141 88.9673L48.1431 89.1152C47.519 87.1829 46.918 85.3106 46.3355 83.5123V83.4429L46.3864 83.3921C47.8005 81.9678 48.8503 80.2234 49.4467 78.3069C49.9869 76.5549 50.1446 74.7072 49.909 72.8889C49.6995 71.273 49.1799 69.7127 48.3789 68.2938C47.6883 67.0749 46.7975 65.9809 45.7438 65.0578C44.8745 64.3271 43.9123 63.7146 42.8823 63.2364C42.1029 62.9002 41.2912 62.6446 40.4599 62.4736L39.5353 62.321L38.865 62.2702L38.4582 62.2425H38.3195C38.3656 62.2373 38.4121 62.2373 38.4582 62.2425H38.8696L39.5399 62.2702L40.4645 62.4042C41.3062 62.5628 42.1289 62.8091 42.9192 63.1393C43.9669 63.6119 44.9465 64.2229 45.8317 64.9561C46.9047 65.8751 47.8144 66.9693 48.5222 68.1921C49.346 69.6263 49.8815 71.2077 50.0986 72.8473C50.3537 74.6937 50.207 76.5733 49.6686 78.3578C49.0683 80.3141 48.0023 82.0956 46.5621 83.5493L46.5898 83.4291C47.1723 85.2274 47.7779 87.0996 48.4066 89.0274L48.4944 89.3094L48.2309 89.1753L42.4015 86.2213H42.5032L42.0871 86.3738C40.7275 86.8523 39.2873 87.0596 37.8479 86.9841C36.4508 86.9309 35.0758 86.6173 33.7937 86.0595C31.3481 85.0121 29.3133 83.1917 28.0012 80.8773C27.3974 79.8083 26.9565 78.6554 26.693 77.4563C26.6208 77.1688 26.5667 76.8769 26.5312 76.5826C26.4942 76.2914 26.4341 76.0047 26.4202 75.7181C26.2951 74.0732 26.4689 72.4193 26.9333 70.8364C27.2253 69.8853 27.6304 68.9727 28.1399 68.1181C29.0026 66.6368 30.1702 65.3557 31.5655 64.3597C32.6193 63.6145 33.7893 63.049 35.028 62.6862L35.7538 62.5013C35.9674 62.4518 36.1834 62.4132 36.401 62.3858C36.7383 62.3233 37.0798 62.2862 37.4226 62.2748L38.056 62.2517C38.128 62.242 38.2006 62.2374 38.2733 62.2378Z" fill="#008080"/>
<path d="M40.9085 73.0182H40.0533L38.2042 70.4201V68.7143C38.2042 68.7143 36.882 68.6311 37.0392 70.8639C37.1964 73.0967 37.0392 72.5281 37.0392 72.5281C37.0392 72.5281 34.2331 72.5281 34.002 72.7824C33.7708 73.0367 33.7569 75.7457 33.7246 77.2573C33.7069 77.6217 33.8114 77.9816 34.0217 78.2798C34.2319 78.578 34.5357 78.7974 34.8849 78.9031C34.9828 78.9302 35.0839 78.9442 35.1854 78.9447C35.8881 78.9447 39.4616 78.3761 39.4616 78.3761H40.9363L40.9085 73.0182Z" fill="#008080"/>
<path d="M43.354 72.5605L42.827 78.4039H41.3662V72.6807L43.354 72.5605Z" fill="#008080"/>
<path d="M60.7768 191.521V187.568L53.69 187.518L53.6299 193.495L54.0691 193.527C56.0245 193.652 64.0175 193.837 65.3304 193.43C66.7912 192.977 60.7768 191.521 60.7768 191.521Z" fill="#008080"/>
<path d="M65.4971 193.06C65.4971 193.125 62.8436 193.18 59.5752 193.18C56.3068 193.18 53.6533 193.125 53.6533 193.06C53.6533 192.995 56.3068 192.94 59.5752 192.94C62.8436 192.94 65.4971 192.995 65.4971 193.06Z" fill="#263238"/>
<path d="M60.9021 192.33C60.842 192.298 60.9021 192.09 61.0454 191.868C61.1887 191.646 61.3828 191.553 61.4291 191.599C61.4753 191.646 61.3782 191.821 61.2395 192.011C61.1008 192.2 60.9622 192.362 60.9021 192.33Z" fill="#263238"/>
<path d="M61.3553 192.589C61.2905 192.589 61.3229 192.33 61.4616 192.085C61.6003 191.84 61.7852 191.692 61.836 191.729C61.8869 191.766 61.8037 191.974 61.6742 192.191C61.5448 192.408 61.4154 192.612 61.3553 192.589Z" fill="#263238"/>
<path d="M55.7894 193.042C55.7617 193.042 55.6553 192.959 55.5028 192.783C55.3166 192.557 55.1091 192.35 54.8833 192.164C54.6613 191.986 54.3967 191.87 54.1159 191.826C53.8987 191.798 53.76 191.826 53.7461 191.798C53.7322 191.771 53.8663 191.674 54.1205 191.655C54.4561 191.648 54.7834 191.759 55.0451 191.969C55.2903 192.169 55.4971 192.412 55.6553 192.686C55.7617 192.889 55.8171 193.023 55.7894 193.042Z" fill="#263238"/>
<path d="M60.9248 191.586C60.9572 191.641 60.837 191.78 60.6336 191.854C60.4302 191.928 60.2499 191.9 60.2407 191.854C60.2314 191.808 60.3747 191.711 60.5504 191.646C60.7261 191.581 60.8879 191.53 60.9248 191.586Z" fill="#263238"/>
<path d="M60.8146 191.202C60.8146 191.271 60.6296 191.327 60.3893 191.331C60.1489 191.336 59.9593 191.28 59.9639 191.216C59.9686 191.151 60.1581 191.091 60.3893 191.086C60.6204 191.082 60.8053 191.137 60.8146 191.202Z" fill="#263238"/>
<path d="M78.229 191.521V187.568L71.1421 187.518L71.082 193.435L71.5212 193.467C73.4767 193.592 81.4742 193.837 82.7825 193.43C84.2433 192.977 78.229 191.521 78.229 191.521Z" fill="#008080"/>
<path d="M82.9486 193.069C82.9486 193.134 80.2996 193.19 77.0267 193.19C73.7537 193.19 71.1094 193.134 71.1094 193.069C71.1094 193.005 73.7583 192.949 77.0267 192.949C80.295 192.949 82.9486 193.005 82.9486 193.069Z" fill="#263238"/>
<path d="M78.3532 192.33C78.2977 192.298 78.3532 192.09 78.4965 191.868C78.6398 191.646 78.834 191.553 78.8802 191.599C78.9264 191.646 78.8294 191.821 78.6907 192.011C78.552 192.2 78.4133 192.362 78.3532 192.33Z" fill="#263238"/>
<path d="M78.8062 192.589C78.7461 192.589 78.7738 192.33 78.9171 192.085C79.0604 191.84 79.2407 191.692 79.2916 191.729C79.3424 191.766 79.2546 191.974 79.1252 192.191C78.9957 192.408 78.8709 192.612 78.8062 192.589Z" fill="#263238"/>
<path d="M73.2406 193.042C73.2128 193.042 73.1111 192.959 72.954 192.783C72.7677 192.557 72.5603 192.35 72.3345 192.164C72.1124 191.986 71.8479 191.87 71.5671 191.826C71.3544 191.798 71.2111 191.826 71.1973 191.798C71.1834 191.771 71.3175 191.674 71.5717 191.655C71.9073 191.648 72.2346 191.759 72.4963 191.969C72.7427 192.168 72.9497 192.411 73.1065 192.686C73.2128 192.889 73.2683 193.023 73.2406 193.042Z" fill="#263238"/>
<path d="M78.377 191.586C78.4093 191.641 78.2892 191.78 78.0857 191.854C77.8823 191.928 77.7021 191.9 77.6928 191.854C77.6836 191.808 77.8269 191.711 78.0025 191.646C78.1782 191.581 78.34 191.53 78.377 191.586Z" fill="#263238"/>
<path d="M78.2748 191.202C78.2748 191.271 78.0899 191.327 77.8495 191.331C77.6091 191.336 77.4242 191.28 77.4288 191.216C77.4334 191.151 77.6183 191.091 77.8495 191.086C78.0806 191.082 78.2748 191.137 78.2748 191.202Z" fill="#263238"/>
<path d="M104.339 74.1462C104.154 73.9566 103.696 74.0491 103.696 74.0491C103.742 73.7829 103.742 73.5109 103.696 73.2447C103.613 72.9858 103.03 73.0367 103.03 73.0367C103.004 72.8187 103.004 72.5982 103.03 72.3802C103.035 72.3319 103.025 72.2833 103.001 72.2412C102.977 72.199 102.94 72.1652 102.896 72.1445C102.621 72.0321 102.325 71.9786 102.027 71.9873C101.671 71.733 103.114 69.7128 103.65 69.0656C104.186 68.4184 104.089 67.9146 103.613 67.9146C103.285 67.9146 101.602 69.8562 101.084 70.508C100.566 71.1598 99.1934 72.972 99.1472 71.525C99.1009 70.0781 98.5185 68.9871 98.1533 68.8021C97.788 68.6172 97.3997 69.0518 97.5985 69.454C97.7732 69.9109 97.8821 70.3903 97.9221 70.8778C97.9723 71.2662 97.9551 71.6603 97.8713 72.0428C97.718 72.7545 97.5093 73.4531 97.2472 74.1323H97.2102C97.2102 74.1323 87.1231 83.808 86.3927 84.4968C85.7408 85.1163 72.6304 83.7618 70 83.4844C69.1061 83.3536 68.2035 83.2918 67.3002 83.2995C66.1583 83.3503 65.9549 83.5121 64.8177 83.526C61.9457 83.5579 59.0804 83.8098 56.2469 84.2795C54.9639 84.4976 53.7654 85.064 52.7823 85.9167C51.7991 86.7694 51.0691 87.8758 50.6717 89.115C48.0228 97.39 42.0223 116.977 40.9637 127.98C40.1637 129.43 39.4415 130.922 38.8002 132.45C38.0559 134.475 38.2362 134.544 38.4858 134.59C39.1608 134.715 39.9282 131.081 40.2148 131.96C40.5014 132.838 38.7586 136.291 39.4659 136.393C40.3905 136.523 41.1255 132.695 41.2133 132.39C41.3012 132.085 41.7588 132.182 41.6756 132.468C41.5415 132.875 40.2425 137.188 41.1486 137.327C41.6479 137.401 41.7033 136.49 41.7033 136.49C41.7033 136.49 42.6279 132.362 43.0486 132.445C43.4693 132.528 43.0209 134.965 42.8082 135.778C42.5956 136.592 42.8914 137.003 43.326 136.805C43.6218 136.666 44.3291 134.193 44.5233 133.388C44.7175 132.584 45.2029 130.356 45.8547 131.645C46.5065 132.935 47.4958 133.684 47.9026 133.703C47.9943 133.692 48.0807 133.654 48.1507 133.594C48.2207 133.534 48.2712 133.454 48.2956 133.365C48.3199 133.276 48.3171 133.182 48.2874 133.095C48.2578 133.007 48.2026 132.931 48.1291 132.875C47.7792 132.533 47.4789 132.144 47.2369 131.719C47.0213 131.388 46.8648 131.022 46.7746 130.638C46.5883 129.871 46.4799 129.087 46.451 128.299L46.3771 127.836C47.4126 122.709 50.3943 107.662 54.6982 98.0511L56.4642 101.685L57.2316 104.375L52.5255 115.992L72.598 115.729L69.6024 104.199L73.2406 92.18C77.1747 92.2678 87.2756 92.4158 88.9584 91.653C91.0756 90.7284 102.027 76.8968 102.027 76.8968C102.741 76.3421 103.425 75.7495 104.075 75.1216C104.075 75.1216 104.741 74.5622 104.339 74.1462Z" fill="#FFBE9D"/>
<path d="M51.6427 107.408C52.2252 105.42 55.2162 95.5917 55.2162 95.5917C55.2162 95.5917 56.6863 103.603 56.2979 104.569C55.9407 105.396 55.5187 106.194 55.0359 106.955C51.6427 112.118 52.0865 114.703 52.0865 114.703L72.5889 114.079C72.6352 111.212 70.9386 104.546 70.5872 103.483C70.2359 102.42 71.4055 98.9387 71.4055 98.9387C71.4055 98.9387 73.7169 96.5856 73.6337 95.3744C73.5898 94.2865 73.4553 93.204 73.2315 92.1384L85.7133 92.6007L85.3203 84.1408L67.3928 82.3472C66.7687 84.1085 61.1242 83.244 61.1242 83.244C55.0313 83.4474 54.6522 84.5662 52.1189 86.5355C49.5855 88.5048 45.3926 105.406 45.3926 105.406L51.6427 107.408Z" fill="#008080"/>
<path d="M63.7638 105.406C63.4085 105.469 63.0467 105.488 62.6867 105.461C62.0164 105.461 61.0964 105.415 60.084 105.313C59.0716 105.212 58.1563 105.068 57.5045 104.939C57.1451 104.893 56.7926 104.803 56.4551 104.671C56.8165 104.671 57.1771 104.705 57.5322 104.773C58.1887 104.856 59.0994 104.971 60.1071 105.073C61.1149 105.175 62.0303 105.244 62.6913 105.29C63.0517 105.295 63.4108 105.334 63.7638 105.406Z" fill="#263238"/>
<path d="M65.1694 103.663C64.8139 103.837 64.4381 103.966 64.0506 104.047C62.2063 104.531 60.3034 104.757 58.3969 104.717C58.0023 104.73 57.6078 104.693 57.2227 104.606C57.612 104.557 58.0045 104.537 58.3969 104.546C59.1227 104.523 60.1212 104.472 61.2214 104.343C62.3217 104.213 63.3017 104.028 63.9952 103.88C64.3803 103.778 64.7729 103.705 65.1694 103.663Z" fill="#263238"/>
<path d="M72.0659 95.8877C72.0566 96.2401 72.0085 96.5905 71.9226 96.9325C71.8024 97.575 71.6175 98.4534 71.3817 99.4149C71.146 100.377 70.9195 101.264 70.7161 101.865C70.6343 102.209 70.5133 102.543 70.3555 102.859C70.3812 102.508 70.4464 102.16 70.5496 101.823C70.7253 101.102 70.9241 100.27 71.146 99.3595C71.3679 98.4488 71.5805 97.6166 71.7562 96.8955C71.8188 96.5484 71.9228 96.21 72.0659 95.8877Z" fill="#263238"/>
<path d="M51.8602 106.229C50.7907 106.064 49.7353 105.818 48.7028 105.494C47.6478 105.247 46.6125 104.923 45.6055 104.523C46.6744 104.691 47.7297 104.936 48.7629 105.258C49.8181 105.504 50.8535 105.828 51.8602 106.229Z" fill="#263238"/>
<path d="M73.4534 92.0368C73.279 92.0668 73.1007 92.0668 72.9263 92.0368C72.4435 91.9872 71.9693 91.8738 71.5164 91.6993C70.7601 91.4151 70.0717 90.9759 69.4953 90.4098C68.9189 89.8438 68.4672 89.1634 68.1694 88.4124C67.8402 87.5863 67.6997 86.6971 67.758 85.8097C67.7786 85.0778 67.9975 84.3652 68.3913 83.748C68.6683 83.3321 69.0821 83.0263 69.5609 82.8835C69.6888 82.8482 69.8211 82.8311 69.9538 82.8326C70.0463 82.8326 70.0925 82.8326 70.0925 82.8326C70.0925 82.8326 69.8984 82.8326 69.5886 82.9574C69.1494 83.1197 68.7768 83.4239 68.53 83.8219C67.9013 84.8112 67.7256 86.6188 68.3959 88.3061C68.7079 89.1017 69.1963 89.8161 69.8244 90.3956C70.339 90.8698 70.9318 91.2514 71.5765 91.5236C72.1815 91.7627 72.8109 91.9348 73.4534 92.0368Z" fill="#263238"/>
<path d="M84.2291 92.4345C84.1135 91.0169 84.0764 89.5939 84.1182 88.1722C84.0819 86.7517 84.1252 85.3303 84.2476 83.9146C84.3633 85.3306 84.4004 86.752 84.3585 88.1722C84.3974 89.5943 84.3542 91.0174 84.2291 92.4345Z" fill="#263238"/>
<path d="M67.2726 82.8648C67.3234 81.8339 67.4298 80.669 67.4298 80.669C67.4298 80.669 69.9816 80.387 70.1341 77.7519C70.2867 75.1169 70.1341 69.0378 70.1341 69.0378L65.5113 66.6709L60.3799 70.7067L61.1704 83.8819L65.8765 84.1823C66.2362 84.1923 66.5852 84.0592 66.8469 83.8122C67.1086 83.5652 67.2617 83.2245 67.2726 82.8648Z" fill="#FFBE9D"/>
<path d="M67.73 75.6673C67.73 75.6673 67.73 75.7181 67.6884 75.7782C67.654 75.8218 67.6096 75.8564 67.5588 75.8789C67.5081 75.9015 67.4526 75.9113 67.3972 75.9077C67.1013 75.9077 66.8147 75.5656 66.713 75.168C66.6647 74.9753 66.6647 74.7736 66.713 74.5809C66.7225 74.4968 66.7528 74.4164 66.8013 74.3469C66.8497 74.2775 66.9147 74.2213 66.9904 74.1833C67.0526 74.1576 67.1224 74.1576 67.1845 74.1833C67.2306 74.2062 67.268 74.2436 67.2909 74.2896C67.3232 74.3682 67.2909 74.4191 67.2909 74.4145C67.2909 74.4098 67.2909 74.3682 67.2446 74.322C67.2205 74.2889 67.1849 74.2659 67.1448 74.2573C67.1048 74.2488 67.0629 74.2554 67.0274 74.2758C66.9707 74.3101 66.9235 74.3581 66.8904 74.4155C66.8573 74.4729 66.8392 74.5377 66.8378 74.604C66.7989 74.776 66.7989 74.9544 66.8378 75.1264C66.9303 75.487 67.1799 75.7782 67.4018 75.806C67.4452 75.8118 67.4894 75.8087 67.5315 75.7968C67.5737 75.7849 67.6129 75.7644 67.6468 75.7366C67.7023 75.6996 67.7208 75.6626 67.73 75.6673Z" fill="#EB996E"/>
<path d="M71.7194 67.6141C71.3634 66.4029 70.0736 65.8019 68.8994 65.4691C67.1104 64.9605 65.178 64.7386 63.4306 65.3812C61.6831 66.0238 59.5843 67.1518 59.5843 69.0795C58.5534 68.9963 57.9617 69.8978 57.5549 71.0165C57.2948 71.6981 57.1389 72.415 57.0926 73.143C56.9632 75.6671 56.2559 79.1528 54.6194 81.0019C53.6948 82.0328 52.4143 82.7447 51.8872 84.0299C51.425 85.144 51.6653 86.4662 51.2354 87.5941C50.8517 88.5881 50.0057 89.2954 49.3863 90.1598C48.7552 91.1405 48.3838 92.2656 48.3069 93.4292C48.2301 94.5929 48.4504 95.757 48.9471 96.8121C49.4474 97.8402 50.1517 98.7557 51.0172 99.5028C51.8827 100.25 52.8913 100.813 53.9814 101.158C56.1408 101.815 58.4435 101.837 60.6152 101.222C62.2452 100.833 63.7656 100.079 65.0624 99.0173C66.3894 97.9337 67.3007 96.4245 67.642 94.7457C67.9702 92.8596 67.4432 90.9411 67.0503 89.0642C65.8206 83.1331 66.1719 82.8233 67.7252 77.3175C67.7622 77.2204 67.7807 77.1187 67.8084 77.0216C67.8362 76.9245 67.85 76.8783 67.8685 76.8044C67.9126 76.5867 67.9359 76.3653 67.9379 76.1433C67.711 76.2276 67.4647 76.2455 67.2281 76.1947C66.9914 76.1439 66.7742 76.0267 66.6019 75.8567C66.4292 75.6754 66.3087 75.4508 66.2534 75.2066C66.1981 74.9624 66.2098 74.7078 66.2875 74.4698C66.3966 74.2095 66.5591 73.975 66.7646 73.7815C66.97 73.5879 67.2138 73.4397 67.4802 73.3464C67.9933 73.1338 68.5435 73.0228 69.0474 72.7871C70.1152 72.2786 70.8549 71.2245 71.3588 70.1197C71.7731 69.3539 71.9009 68.4656 71.7194 67.6141Z" fill="#263238"/>
<path d="M67.9149 75.792C68.0126 75.9363 68.0932 76.0914 68.1553 76.2543C68.294 76.5455 68.4789 76.957 68.6823 77.4331L68.7193 77.5209H68.6222L68.1599 77.5626C67.8409 77.5626 67.5728 77.6226 67.2584 77.618C67.2311 77.6119 67.2057 77.5989 67.1847 77.5803C67.1637 77.5617 67.1477 77.5381 67.1383 77.5117C67.1245 77.4697 67.1245 77.4243 67.1383 77.3823C67.149 77.32 67.1628 77.2582 67.1799 77.1973L67.2631 76.8691C67.3049 76.6502 67.37 76.4363 67.4572 76.2312C67.4486 76.4544 67.4161 76.676 67.3601 76.8922L67.2954 77.2205C67.2723 77.3314 67.2307 77.5025 67.2954 77.4886C67.5266 77.4886 67.8548 77.4377 68.1599 77.4192L68.6222 77.3776L68.5621 77.4793C68.3633 77.0171 68.1969 76.5825 68.0998 76.282C68.0147 76.1285 67.9524 75.9635 67.9149 75.792Z" fill="#008080"/>
<path d="M52.0862 114.703L72.5887 114.079L81.5108 148.907L79.8697 188.858H69.0291L70.3558 149.758L62.4276 125.511L63.648 190.407L52.6918 190.569L51.5407 129.57C51.4899 127.873 50.9351 124.05 51.1432 122.367L52.0862 114.703Z" fill="#263238"/>
<path d="M65.1554 126.005C64.8198 126.027 64.4829 126.006 64.1522 125.945C63.5327 125.871 62.6868 125.742 61.7576 125.557C60.8284 125.372 59.9963 125.159 59.3953 124.988C59.074 124.918 58.7633 124.806 58.4707 124.656C58.4707 124.586 59.9778 124.947 61.8269 125.321C63.6761 125.696 65.1646 125.936 65.1554 126.005Z" fill="#455A64"/>
<path d="M79.7591 186.667C79.7591 186.732 77.3044 186.787 74.2764 186.787C71.2484 186.787 68.7891 186.732 68.7891 186.667C68.7891 186.602 71.2438 186.547 74.2764 186.547C77.309 186.547 79.7591 186.598 79.7591 186.667Z" fill="#455A64"/>
<path d="M63.5508 188.719C63.5508 188.789 61.1654 188.84 58.2252 188.84C55.2851 188.84 52.9043 188.789 52.9043 188.719C52.9043 188.65 55.2897 188.599 58.2252 188.599C61.1608 188.599 63.5508 188.655 63.5508 188.719Z" fill="#455A64"/>
<path d="M62.1368 188.553C62.0721 188.553 61.7855 174.375 61.4942 156.886C61.203 139.398 61.032 125.21 61.0921 125.21C61.1522 125.21 61.448 139.384 61.7346 156.882C62.0213 174.379 62.2062 188.553 62.1368 188.553Z" fill="#455A64"/>
<path d="M78.3031 186.667C78.298 186.604 78.298 186.54 78.3031 186.477V185.923C78.3031 185.423 78.3401 184.707 78.3678 183.796C78.4325 181.947 78.525 179.261 78.6406 175.97C78.8902 169.35 79.2415 160.224 79.6252 150.151C79.6252 150.054 79.6252 149.961 79.6252 149.878V149.91C77.1982 140.202 75.0024 131.391 73.4075 125.016L71.5583 117.476C71.3457 116.593 71.1839 115.905 71.0683 115.424C71.0128 115.197 70.9758 115.022 70.9435 114.888C70.9255 114.827 70.9146 114.765 70.9111 114.703C70.9351 114.761 70.9537 114.821 70.9666 114.883C71.0036 115.012 71.0498 115.188 71.1145 115.41C71.2394 115.872 71.4196 116.575 71.6508 117.453C72.1131 119.238 72.7649 121.808 73.5785 124.975C75.1873 131.345 77.4063 140.133 79.8656 149.855V149.887C79.8656 149.971 79.8656 150.068 79.8656 150.16C79.4542 160.233 79.0797 169.354 78.807 175.974C78.6637 179.27 78.5435 181.938 78.4603 183.796C78.414 184.721 78.3771 185.423 78.354 185.923C78.354 186.158 78.3262 186.343 78.3216 186.477C78.3223 186.541 78.3161 186.605 78.3031 186.667Z" fill="#455A64"/>
<path d="M74.7661 149.064C73.9875 149.32 73.1853 149.499 72.3715 149.596C71.3729 149.767 70.5223 149.887 70.1386 149.906V149.813C70.2635 149.85 70.3282 149.873 70.3282 149.892C70.3282 149.91 70.2496 149.892 70.1201 149.892H69.8428L70.1201 149.809C70.4807 149.702 71.3313 149.527 72.3299 149.346C73.1307 149.173 73.9468 149.078 74.7661 149.064Z" fill="#455A64"/>
<path d="M74.5771 150.391C73.856 150.424 73.1334 150.392 72.4182 150.294C71.6961 150.28 70.9767 150.201 70.2686 150.059C71.7133 149.941 73.1676 150.053 74.5771 150.391Z" fill="#455A64"/>
<path opacity="0.2" d="M51.998 115.438C52.2409 115.75 52.5467 116.007 52.8956 116.192C53.2445 116.378 53.6286 116.488 54.0229 116.515C54.8486 116.613 55.6838 116.597 56.5053 116.469C61.7985 115.882 67.4061 115.341 72.5883 114.079C65.8805 114.453 58.7937 114.328 52.0859 114.703L52.0165 115.276" fill="black"/>
<g opacity="0.2">
<path d="M58.9102 124.892L62.6917 139.565L62.4282 125.511L58.9102 124.892Z" fill="black"/>
</g>
</svg>
